<?xml version="1.0" standalone="no"?>
<!DOCTYPE svg PUBLIC "-//W3C//DTD SVG 20010904//EN"
 "http://www.w3.org/TR/2001/REC-SVG-20010904/DTD/svg10.dtd">
<svg version="1.0" xmlns="http://www.w3.org/2000/svg"
 width="1563.000000pt" height="1563.000000pt" viewBox="0 0 1563.000000 1563.000000"
 preserveAspectRatio="xMidYMid meet">

<g transform="translate(0.000000,1563.000000) scale(0.100000,-0.100000)"
fill="#000000" stroke="none">
<path d="M5931 11706 c-6 -7 -24 -16 -39 -19 -15 -3 -44 -17 -65 -31 -21 -14
-42 -26 -47 -26 -11 0 -79 -39 -102 -58 -10 -8 -18 -25 -18 -36 0 -27 -17 -53
-27 -42 -4 5 -2 11 5 13 14 5 17 53 3 53 -24 0 -34 -31 -22 -69 14 -49 14 -48
-9 -54 -12 -3 -20 0 -20 7 0 20 -52 63 -57 49 -3 -7 -18 -13 -34 -13 -29 0
-39 -13 -19 -25 6 -3 10 -11 10 -18 0 -8 -3 -8 -12 1 -15 15 -58 16 -58 2 0
-5 -5 -10 -11 -10 -12 0 -86 -55 -107 -80 -7 -8 -18 -26 -24 -40 -26 -61 -51
-128 -58 -160 -9 -39 -43 -163 -62 -225 -7 -22 -18 -51 -25 -65 -7 -14 -13
-32 -13 -40 0 -8 -6 -32 -14 -55 -22 -65 -38 -143 -31 -155 4 -6 1 -9 -6 -8
-7 2 -14 -1 -14 -7 -4 -33 -29 -135 -41 -161 -7 -17 -19 -55 -24 -85 -6 -30
-18 -72 -26 -93 -9 -22 -12 -51 -9 -68 5 -21 3 -28 -6 -26 -9 2 -17 -15 -23
-49 -5 -29 -12 -53 -17 -53 -4 0 -11 -27 -15 -60 -4 -33 -10 -60 -14 -60 -5 0
-11 -19 -15 -42 -4 -24 -10 -47 -14 -53 -3 -5 -7 -19 -7 -30 -2 -23 -9 -53
-19 -77 -4 -10 -3 -18 3 -18 5 0 13 16 16 35 6 32 22 53 32 43 9 -10 -38 -98
-51 -98 -18 0 -19 -12 -2 -29 10 -11 8 -12 -12 -6 -21 7 -23 5 -19 -19 3 -14
2 -26 -3 -26 -7 0 -19 -40 -24 -86 -1 -14 4 -28 13 -33 13 -8 13 -13 -1 -47
-9 -22 -16 -33 -16 -26 -1 6 -6 12 -12 12 -8 0 -9 -13 -5 -39 4 -30 1 -44 -14
-63 -11 -14 -17 -28 -13 -32 3 -3 -1 -14 -9 -23 -9 -10 -15 -31 -14 -46 1 -15
-4 -33 -10 -38 -7 -5 -9 -19 -6 -31 4 -16 2 -19 -8 -13 -10 6 -11 -1 -7 -31 4
-21 4 -33 1 -26 -12 27 -26 11 -21 -23 4 -23 2 -33 -4 -29 -7 4 -10 -9 -8 -35
2 -27 -1 -45 -10 -50 -8 -5 -11 -17 -6 -30 3 -11 2 -21 -2 -21 -5 0 -15 -35
-22 -77 -6 -43 -16 -89 -21 -103 -4 -14 -18 -63 -30 -110 -12 -47 -27 -102
-32 -122 -6 -20 -8 -44 -5 -52 9 -22 7 -32 -5 -28 -5 1 -7 -13 -3 -34 4 -27 1
-42 -11 -56 -11 -12 -17 -35 -17 -66 0 -26 -3 -51 -7 -57 -4 -5 -11 -30 -15
-55 -4 -25 -12 -54 -18 -65 -6 -11 -12 -24 -12 -30 -1 -12 -13 -44 -25 -66
-15 -29 -24 -113 -11 -105 6 4 11 1 11 -6 0 -7 -9 -19 -20 -26 -21 -13 -28
-42 -10 -42 6 0 10 -7 10 -15 0 -8 -7 -15 -16 -15 -16 0 -16 -7 1 -55 5 -15 4
-16 -3 -6 -7 10 -14 -1 -26 -44 -10 -31 -15 -59 -12 -62 2 -3 22 -7 44 -10 33
-4 41 -2 45 13 4 16 5 15 6 -3 0 -13 4 -23 9 -24 30 -3 49 -7 65 -14 13 -6 17
-2 17 17 0 24 29 74 30 51 0 -7 5 -13 11 -13 6 0 9 7 6 15 -4 8 -1 17 4 21 6
3 8 16 5 27 -3 13 2 29 12 41 16 18 16 19 0 13 -12 -4 -15 -2 -11 9 3 7 12 14
20 14 9 0 12 6 8 19 -4 12 0 21 11 25 9 4 14 9 11 13 -3 3 0 18 9 34 8 16 14
30 13 31 0 2 4 16 10 31 6 16 11 36 11 45 1 9 7 28 15 42 16 29 20 74 5 65
-18 -11 -10 7 11 24 13 10 22 31 24 56 2 22 9 49 16 62 9 17 9 26 0 37 -10 12
-8 17 9 26 11 6 18 16 14 22 -4 7 -9 6 -15 -3 -15 -23 -11 7 6 48 8 19 15 44
15 55 0 10 7 21 15 24 15 6 35 57 38 96 1 13 7 29 14 36 7 7 16 25 19 40 4 15
26 77 50 137 23 61 49 129 56 153 7 23 16 42 20 42 5 0 8 12 8 26 0 14 4 23
10 19 6 -3 10 0 10 8 0 8 7 28 15 43 8 16 15 36 15 45 0 8 4 19 8 25 5 5 19
38 31 74 13 36 27 74 31 85 5 11 18 52 30 90 12 39 25 77 30 85 4 9 11 31 15
50 4 19 11 40 15 45 4 6 11 26 15 45 4 19 11 41 16 50 14 25 155 372 174 425
9 28 20 57 23 65 30 85 98 279 117 335 13 39 34 95 46 125 13 30 22 73 22 95
-1 30 1 35 8 20 6 -16 8 -13 8 15 0 40 27 168 39 184 13 17 39 97 46 138 4 20
13 50 21 65 8 15 15 36 15 46 0 10 7 20 15 23 8 4 15 17 15 31 0 16 7 27 18
30 10 2 24 21 31 41 13 36 18 49 55 138 10 22 16 46 14 53 -2 7 6 18 17 24 28
17 35 29 29 50 -4 11 0 17 11 17 12 0 15 6 11 23 -3 12 -3 16 0 9 5 -10 9 -10
20 -1 20 16 17 30 -3 22 -17 -6 -17 -5 -2 13 30 37 60 94 54 103 -10 18 -34 0
-40 -30 -4 -16 -10 -29 -14 -29 -4 0 -20 -27 -36 -59 -18 -39 -32 -58 -41 -54
-11 4 -10 10 5 32 18 26 71 134 71 145 0 11 -18 6 -29 -8z m-38 -73 c-19 -47
-43 -82 -43 -64 0 7 6 25 14 39 8 15 17 35 20 45 3 9 10 17 15 17 6 0 3 -17
-6 -37z m-103 -37 c0 -3 -4 -8 -10 -11 -5 -3 -10 -1 -10 4 0 6 5 11 10 11 6 0
10 -2 10 -4z m119 -101 c-6 -6 -13 -5 -19 5 -5 8 -10 11 -10 7 0 -5 -5 -5 -10
-2 -21 13 1 23 25 12 16 -8 21 -15 14 -22z m-34 -4 c3 -5 1 -12 -5 -16 -5 -3
-10 -17 -10 -31 0 -13 -5 -24 -11 -24 -7 0 -9 9 -5 23 3 12 6 30 6 40 0 18 15
23 25 8z m-311 -70 c-7 -7 -34 28 -34 43 1 6 10 0 21 -13 11 -13 17 -27 13
-30z m235 3 c7 5 9 1 5 -9 -5 -12 -9 -13 -20 -4 -10 8 -14 8 -14 0 0 -6 -5
-11 -10 -11 -6 0 -5 8 2 20 8 12 15 15 19 8 4 -6 12 -8 18 -4z m-334 -14 c3
-5 1 -10 -4 -10 -6 0 -11 5 -11 10 0 6 2 10 4 10 3 0 8 -4 11 -10z m155 -35
c0 -25 -3 -45 -6 -45 -18 0 -44 24 -44 40 0 25 17 26 23 3 3 -10 5 -3 6 15 2
49 21 38 21 -13z m211 8 c-12 -20 -14 -14 -5 12 4 9 9 14 11 11 3 -2 0 -13 -6
-23z m-343 -34 c-3 -20 -5 -19 -9 9 -3 20 -2 29 4 23 5 -5 7 -19 5 -32z m258
5 c-4 -9 -9 -15 -11 -12 -3 3 -3 13 1 22 4 9 9 15 11 12 3 -3 3 -13 -1 -22z
m-96 -30 c0 -8 -5 -12 -10 -9 -6 4 -8 11 -5 16 9 14 15 11 15 -7z m57 -62
c-12 -34 -26 -62 -30 -62 -10 0 -2 28 24 89 28 65 33 45 6 -27z m-190 -9 c-3
-10 -5 -2 -5 17 0 19 2 27 5 18 2 -10 2 -26 0 -35z m125 3 c-3 -5 -9 -1 -13
10 -12 31 -10 39 5 19 8 -11 12 -24 8 -29z m-56 -23 c-11 -11 -19 6 -11 24 8
17 8 17 12 0 3 -10 2 -21 -1 -24z m-236 7 c0 -5 -4 -10 -10 -10 -5 0 -10 5
-10 10 0 6 5 10 10 10 6 0 10 -4 10 -10z m268 -43 c-5 -17 -12 -40 -15 -49 -3
-10 -11 -18 -19 -18 -13 0 -11 11 21 98 11 29 23 0 13 -31z m-191 -9 c-3 -8
-6 -5 -6 6 -1 11 2 17 5 13 3 -3 4 -12 1 -19z m118 -53 c-15 -31 -29 -54 -31
-52 -3 2 2 17 10 33 8 16 20 41 27 56 7 16 14 26 16 24 3 -2 -8 -30 -22 -61z
m-69 8 c-11 -11 -17 4 -9 23 7 18 8 18 11 1 2 -10 1 -21 -2 -24z m-166 -18 c0
-14 -4 -25 -10 -25 -5 0 -10 -7 -10 -16 0 -8 -4 -12 -10 -9 -5 3 -10 -1 -10
-9 0 -9 -4 -16 -10 -16 -12 0 -13 27 -1 34 4 3 11 19 14 36 8 37 37 41 37 5z
m153 -15 c-3 -11 -7 -20 -9 -20 -2 0 -4 9 -4 20 0 11 4 20 9 20 5 0 7 -9 4
-20z m106 -48 c-12 -23 -23 -42 -25 -42 -11 0 -2 51 12 64 8 9 13 16 9 16 -3
0 -3 5 1 11 3 6 10 7 15 2 5 -5 0 -27 -12 -51z m50 -36 c-9 -8 -10 -7 -5 7 3
10 7 24 7 30 1 7 3 4 6 -7 3 -10 -1 -23 -8 -30z m-186 4 c-3 -12 -8 -19 -11
-16 -5 6 5 36 12 36 2 0 2 -9 -1 -20z m-156 -32 c-3 -7 -5 -2 -5 12 0 14 2 19
5 13 2 -7 2 -19 0 -25z m265 -28 c-2 -17 -9 -29 -16 -27 -14 5 -15 26 -4 50
13 26 25 12 20 -23z m-136 -2 c-18 -26 -22 -17 -5 14 6 11 13 17 16 15 3 -3
-2 -16 -11 -29z m-146 4 c0 -13 -12 -22 -22 -16 -10 6 -1 24 13 24 5 0 9 -4 9
-8z m366 -58 c-4 -9 -9 -15 -11 -12 -3 3 -3 13 1 22 4 9 9 15 11 12 3 -3 3
-13 -1 -22z m-156 7 c0 -6 -4 -13 -10 -16 -5 -3 -10 1 -10 9 0 9 5 16 10 16 6
0 10 -4 10 -9z m-37 -31 c3 -11 2 -20 -3 -20 -4 0 -10 9 -13 20 -3 11 -2 20 3
20 4 0 10 -9 13 -20z m164 -62 c-3 -8 -6 -5 -6 6 -1 11 2 17 5 13 3 -3 4 -12
1 -19z m-61 -54 c-4 -9 -9 -15 -11 -12 -3 3 -3 13 1 22 4 9 9 15 11 12 3 -3 3
-13 -1 -22z m-122 -46 c-10 -16 -23 3 -19 30 5 39 6 40 15 8 5 -16 7 -33 4
-38z m-34 10 c0 -5 -4 -8 -10 -8 -5 0 -10 10 -10 23 0 18 2 19 10 7 5 -8 10
-18 10 -22z m187 10 c-3 -8 -6 -5 -6 6 -1 11 2 17 5 13 3 -3 4 -12 1 -19z
m-90 -10 c-3 -8 -6 -5 -6 6 -1 11 2 17 5 13 3 -3 4 -12 1 -19z m-271 -53 c-9
-9 -16 -13 -16 -8 0 12 22 34 28 28 2 -2 -3 -11 -12 -20z m343 -21 c-9 -22
-13 -25 -16 -12 -5 19 18 69 24 52 2 -6 -2 -24 -8 -40z m-135 -9 c3 -8 1 -15
-3 -15 -5 0 -11 7 -15 15 -3 8 -1 15 3 15 5 0 11 -7 15 -15z m-124 -55 c-27
-27 -34 -25 -14 5 9 14 20 22 25 20 4 -3 -1 -15 -11 -25z m255 -10 c3 -5 1
-10 -4 -10 -6 0 -11 5 -11 10 0 6 2 10 4 10 3 0 8 -4 11 -10z m-282 -70 c-8
-17 -21 -30 -29 -30 -18 0 -18 15 1 34 8 8 15 22 15 32 0 13 3 14 14 5 12 -10
12 -16 -1 -41z m157 34 c0 -8 -5 -12 -10 -9 -6 4 -8 11 -5 16 9 14 15 11 15
-7z m117 -26 c-3 -8 -6 -5 -6 6 -1 11 2 17 5 13 3 -3 4 -12 1 -19z m-57 -18
c0 -5 -4 -10 -10 -10 -5 0 -10 5 -10 10 0 6 5 10 10 10 6 0 10 -4 10 -10z m40
-6 c0 -8 -4 -12 -10 -9 -5 3 -10 10 -10 16 0 5 5 9 10 9 6 0 10 -7 10 -16z
m-14 -53 c-4 -6 -14 -11 -22 -11 -12 0 -12 3 -2 20 7 11 16 16 21 11 5 -5 6
-14 3 -20z m-430 -37 c-12 -32 -23 -12 -13 24 10 31 13 33 15 14 2 -13 1 -30
-2 -38z m254 16 c-6 -11 -16 -20 -23 -20 -7 0 -18 -9 -25 -21 -11 -18 -11 -23
5 -35 17 -14 17 -15 -3 -9 -17 4 -24 -3 -43 -47 -22 -50 -22 -53 -4 -66 13
-10 14 -16 6 -19 -7 -3 -13 -10 -13 -16 0 -13 -30 -47 -42 -47 -12 0 0 40 19
62 13 14 12 18 -4 28 -13 8 -14 13 -5 16 6 3 12 12 12 20 0 8 4 14 10 14 5 0
7 7 4 15 -4 8 -2 15 4 15 6 0 13 14 17 30 4 17 11 30 16 30 5 0 9 5 9 10 0 15
43 59 58 59 10 1 10 -4 2 -19z m34 -4 c-3 -9 -10 -16 -15 -16 -5 0 -4 9 3 20
14 22 21 20 12 -4z m116 -41 c0 -3 -6 -5 -13 -5 -24 0 -37 -21 -26 -43 8 -13
8 -22 0 -30 -8 -8 -11 -6 -11 9 0 16 -2 15 -13 -6 -7 -14 -21 -49 -30 -77 -14
-43 -15 -56 -5 -72 18 -30 1 -37 -21 -10 -23 27 -26 45 -11 54 6 3 10 14 10
23 0 9 14 43 30 76 16 32 27 63 24 68 -3 5 2 25 11 45 l17 35 19 -31 c10 -17
19 -34 19 -36z m-378 3 c-6 -6 -7 0 -4 19 5 21 7 23 10 9 2 -10 0 -22 -6 -28z
m288 -58 c0 -5 -5 -10 -11 -10 -5 0 -7 5 -4 10 3 6 8 10 11 10 2 0 4 -4 4 -10z
m-343 -22 c-3 -8 -6 -5 -6 6 -1 11 2 17 5 13 3 -3 4 -12 1 -19z m38 -8 c3 -5
1 -10 -4 -10 -6 0 -11 5 -11 10 0 6 2 10 4 10 3 0 8 -4 11 -10z m195 -20 c0
-5 -4 -10 -10 -10 -5 0 -10 -8 -10 -17 0 -15 -2 -15 -9 -4 -6 9 -5 19 2 27 14
16 27 18 27 4z m50 -10 c0 -5 -4 -10 -10 -10 -5 0 -10 5 -10 10 0 6 5 10 10
10 6 0 10 -4 10 -10z m-276 -76 c-29 -79 -35 -99 -63 -209 -12 -44 -21 -92
-21 -107 0 -25 -15 -46 -26 -36 -5 6 18 111 41 188 9 30 23 76 30 102 7 25 18
56 24 67 6 11 11 29 11 40 0 16 18 34 28 26 1 -1 -10 -33 -24 -71z m-47 34
c-3 -8 -6 -5 -6 6 -1 11 2 17 5 13 3 -3 4 -12 1 -19z m413 2 c0 -5 -4 -10 -10
-10 -5 0 -10 5 -10 10 0 6 5 10 10 10 6 0 10 -4 10 -10z m-420 -39 c-5 -11
-10 -30 -10 -43 -1 -21 -20 -81 -48 -151 -7 -16 -12 -35 -12 -43 0 -8 -5 -14
-11 -14 -7 0 -8 7 -4 18 23 59 65 193 65 209 0 10 5 24 12 31 17 17 20 15 8
-7z m397 -13 c-3 -8 -6 -5 -6 6 -1 11 2 17 5 13 3 -3 4 -12 1 -19z m-67 -4 c0
-17 -22 -14 -28 4 -2 7 3 12 12 12 9 0 16 -7 16 -16z m-38 -36 c-7 -7 -12 -8
-12 -2 0 14 12 26 19 19 2 -3 -1 -11 -7 -17z m67 -7 c-2 -16 -35 -64 -44 -63
-6 1 -11 12 -12 24 -2 21 -2 21 6 3 7 -17 9 -14 15 17 5 27 11 36 21 31 8 -3
15 -8 14 -12z m-184 -1 c3 -5 1 -10 -4 -10 -6 0 -11 5 -11 10 0 6 2 10 4 10 3
0 8 -4 11 -10z m50 -49 c-4 -23 -11 -41 -17 -41 -6 0 -7 8 -3 18 3 9 9 30 12
45 9 43 16 23 8 -22z m-80 -11 c3 -5 1 -10 -4 -10 -6 0 -11 5 -11 10 0 6 2 10
4 10 3 0 8 -4 11 -10z m215 -17 c0 -14 -74 -188 -82 -191 -4 -2 -4 -10 -1 -18
3 -8 -2 -22 -10 -32 -8 -9 -19 -30 -23 -45 -3 -16 -17 -51 -30 -78 -13 -27
-24 -55 -24 -63 0 -16 -18 -31 -26 -23 -3 2 2 20 10 38 8 19 21 50 30 71 9 20
16 43 16 51 0 8 7 20 15 27 8 7 12 17 9 22 -3 5 2 15 12 22 12 9 14 15 6 20
-16 10 -15 26 2 26 16 0 37 41 63 122 10 32 21 58 26 58 4 0 7 -3 7 -7z m-224
-58 c-3 -10 -11 -13 -18 -9 -9 6 -9 9 -1 11 7 3 9 12 6 21 -5 13 -3 14 7 5 7
-6 10 -19 6 -28z m134 26 c0 -6 -4 -13 -10 -16 -5 -3 -10 1 -10 9 0 9 5 16 10
16 6 0 10 -4 10 -9z m17 -43 c-3 -8 -6 -5 -6 6 -1 11 2 17 5 13 3 -3 4 -12 1
-19z m-84 -18 c-3 -11 -7 -20 -8 -20 -1 0 -5 9 -8 20 -3 12 0 20 8 20 8 0 11
-8 8 -20z m32 -30 c3 -5 1 -10 -4 -10 -6 0 -11 5 -11 10 0 6 2 10 4 10 3 0 8
-4 11 -10z m-328 -32 c-3 -8 -6 -5 -6 6 -1 11 2 17 5 13 3 -3 4 -12 1 -19z
m260 -30 c-3 -8 -6 -5 -6 6 -1 11 2 17 5 13 3 -3 4 -12 1 -19z m-267 -4 c0 -8
-5 -25 -11 -36 -16 -29 -30 -4 -15 28 13 27 26 32 26 8z m245 6 c3 -5 1 -10
-4 -10 -6 0 -11 5 -11 10 0 6 2 10 4 10 3 0 8 -4 11 -10z m59 -25 c-4 -8 -8
-15 -10 -15 -2 0 -4 7 -4 15 0 8 4 15 10 15 5 0 7 -7 4 -15z m-61 -30 c-3 -9
-8 -14 -10 -11 -3 3 -2 9 2 15 9 16 15 13 8 -4z m-42 -29 c-8 -10 -9 -16 -1
-21 5 -3 10 -11 10 -16 0 -6 -4 -8 -9 -4 -11 6 -34 -29 -25 -38 10 -10 -7 -47
-21 -47 -20 0 -13 79 8 95 10 7 17 17 16 21 -3 18 1 24 17 24 13 0 14 -3 5
-14z m26 -148 c-3 -8 -6 -5 -6 6 -1 11 2 17 5 13 3 -3 4 -12 1 -19z m-14 -43
c-3 -9 -8 -14 -10 -11 -3 3 -2 9 2 15 9 16 15 13 8 -4z m-300 -25 c-6 -22 -21
-35 -29 -27 -7 7 15 47 25 47 5 0 7 -9 4 -20z m354 -22 c-3 -8 -6 -5 -6 6 -1
11 2 17 5 13 3 -3 4 -12 1 -19z m-11 -45 c-10 -10 -19 5 -10 18 6 11 8 11 12
0 2 -7 1 -15 -2 -18z m-30 -80 c-11 -11 -19 6 -11 24 8 17 8 17 12 0 3 -10 2
-21 -1 -24z m-79 -5 c-3 -8 -6 -5 -6 6 -1 11 2 17 5 13 3 -3 4 -12 1 -19z m60
-30 c-3 -8 -6 -5 -6 6 -1 11 2 17 5 13 3 -3 4 -12 1 -19z m-7 -32 c0 -8 -4
-18 -10 -21 -5 -3 -10 3 -10 14 0 12 5 21 10 21 6 0 10 -6 10 -14z m-77 -11
c-3 -9 -8 -14 -10 -11 -3 3 -2 9 2 15 9 16 15 13 8 -4z m-213 -25 c0 -5 -5
-10 -11 -10 -5 0 -7 5 -4 10 3 6 8 10 11 10 2 0 4 -4 4 -10z m-20 -112 c0 -7
-9 -40 -20 -73 l-20 -60 5 50 c9 69 16 95 26 95 5 0 9 -6 9 -12z m177 -10 c-3
-8 -6 -5 -6 6 -1 11 2 17 5 13 3 -3 4 -12 1 -19z m-17 -122 c0 -3 -4 -8 -10
-11 -5 -3 -10 -1 -10 4 0 6 5 11 10 11 6 0 10 -2 10 -4z m-133 -58 c-3 -8 -6
-5 -6 6 -1 11 2 17 5 13 3 -3 4 -12 1 -19z m60 -10 c-3 -7 -5 -2 -5 12 0 14 2
19 5 13 2 -7 2 -19 0 -25z m-140 -10 c-3 -8 -6 -5 -6 6 -1 11 2 17 5 13 3 -3
4 -12 1 -19z m-22 -102 c-10 -41 -22 -73 -26 -70 -4 2 -3 19 2 37 5 17 14 52
20 76 5 23 13 40 16 37 4 -3 -2 -40 -12 -80z m199 68 c3 -8 2 -12 -4 -9 -6 3
-10 10 -10 16 0 14 7 11 14 -7z m-4 -55 c0 -11 -4 -17 -10 -14 -5 3 -10 13
-10 21 0 8 5 14 10 14 6 0 10 -9 10 -21z m-153 -51 c-3 -7 -5 -2 -5 12 0 14 2
19 5 13 2 -7 2 -19 0 -25z m137 7 c-4 -8 -10 -12 -15 -9 -14 8 -10 24 6 24 9
0 12 -6 9 -15z m-204 -71 c0 -8 -5 -12 -10 -9 -6 4 -8 11 -5 16 9 14 15 11 15
-7z m190 0 c0 -8 -5 -12 -10 -9 -6 4 -8 11 -5 16 9 14 15 11 15 -7z m-273 -46
c-3 -8 -6 -5 -6 6 -1 11 2 17 5 13 3 -3 4 -12 1 -19z m184 -25 c-12 -20 -14
-14 -5 12 4 9 9 14 11 11 3 -2 0 -13 -6 -23z m-34 -105 c-3 -8 -6 -5 -6 6 -1
11 2 17 5 13 3 -3 4 -12 1 -19z m-113 -153 c-7 -16 -24 -21 -24 -6 0 8 7 13
27 20 1 1 0 -6 -3 -14z m-43 -129 c-9 -18 -18 -29 -19 -25 -5 13 21 68 29 63
4 -2 -1 -19 -10 -38z m44 -65 c-3 -6 -11 -11 -16 -11 -5 0 -4 6 3 14 14 16 24
13 13 -3z m-73 -41 c-9 -21 -19 -35 -21 -29 -4 13 19 69 29 69 5 0 1 -18 -8
-40z m148 6 c0 -2 -7 -7 -16 -10 -8 -3 -12 -2 -9 4 6 10 25 14 25 6z m-109
-79 c-10 -9 -11 -8 -5 6 3 10 9 15 12 12 3 -3 0 -11 -7 -18z m-57 -22 c-4 -8
-11 -15 -16 -15 -6 0 -5 6 2 15 7 8 14 15 16 15 2 0 1 -7 -2 -15z m-87 -77
c-3 -8 -6 -5 -6 6 -1 11 2 17 5 13 3 -3 4 -12 1 -19z m193 -8 c0 -5 -4 -10
-10 -10 -5 0 -10 5 -10 10 0 6 5 10 10 10 6 0 10 -4 10 -10z m-147 -33 c-5 -7
-10 -28 -12 -47 -3 -32 -40 -129 -40 -105 -1 12 34 143 45 169 5 12 9 15 12 8
2 -7 0 -18 -5 -25z m43 -5 c-18 -16 -18 -16 -6 6 6 13 14 21 18 18 3 -4 -2
-14 -12 -24z m84 -36 c0 -8 -7 -16 -15 -20 -12 -4 -13 -2 -2 14 14 24 17 25
17 6z m-233 -18 c-3 -8 -6 -5 -6 6 -1 11 2 17 5 13 3 -3 4 -12 1 -19z m153 5
c0 -14 -19 -38 -25 -32 -8 8 5 39 16 39 5 0 9 -3 9 -7z m-123 -35 c-3 -8 -6
-5 -6 6 -1 11 2 17 5 13 3 -3 4 -12 1 -19z m140 -20 c-3 -8 -6 -5 -6 6 -1 11
2 17 5 13 3 -3 4 -12 1 -19z m-50 -10 c-3 -8 -6 -5 -6 6 -1 11 2 17 5 13 3 -3
4 -12 1 -19z m59 -50 c4 4 2 -1 -5 -10 -18 -24 -31 -23 -31 3 0 17 3 19 13 10
8 -6 18 -7 23 -3z m-79 -42 c-7 -15 -14 -20 -18 -14 -4 6 -2 17 4 24 19 21 26
16 14 -10z m-27 -59 c0 -5 -4 -5 -10 -2 -5 3 -10 14 -10 23 0 15 2 15 10 2 5
-8 10 -19 10 -23z m-10 -57 c0 -5 -5 -10 -11 -10 -5 0 -7 5 -4 10 3 6 8 10 11
10 2 0 4 -4 4 -10z m67 -17 c-9 -9 -20 -13 -24 -9 -4 4 -1 11 7 16 25 16 35
11 17 -7z"/>
<path d="M5591 11504 c0 -11 3 -14 6 -6 3 7 2 16 -1 19 -3 4 -6 -2 -5 -13z"/>
<path d="M5771 11194 c0 -11 3 -14 6 -6 3 7 2 16 -1 19 -3 4 -6 -2 -5 -13z"/>
<path d="M5621 10724 c0 -11 3 -14 6 -6 3 7 2 16 -1 19 -3 4 -6 -2 -5 -13z"/>
<path d="M4750 9479 c0 -11 5 -17 10 -14 6 3 10 13 10 21 0 8 -4 14 -10 14 -5
0 -10 -9 -10 -21z"/>
<path d="M1950 8770 c-6 -11 -7 -20 -2 -20 10 0 32 21 32 32 0 16 -19 8 -30
-12z"/>
<path d="M12083 8774 c32 -11 43 -11 63 -1 22 12 19 13 -38 14 l-63 1 38 -14z"/>
<path d="M2010 8766 c0 -9 5 -16 10 -16 6 0 10 4 10 9 0 6 -4 13 -10 16 -5 3
-10 -1 -10 -9z"/>
<path d="M8910 8770 c0 -5 7 -10 15 -10 8 0 15 5 15 10 0 6 -7 10 -15 10 -8 0
-15 -4 -15 -10z"/>
<path d="M12178 8729 c-21 -21 -32 -39 -25 -39 6 0 21 -3 32 -6 16 -4 24 3 38
31 16 34 16 56 -1 54 -4 0 -24 -18 -44 -40z"/>
<path d="M1948 8699 c-16 -17 -25 -36 -21 -45 3 -8 -2 -23 -11 -33 -9 -10 -19
-28 -21 -41 -2 -12 -9 -28 -16 -36 -9 -11 -8 -14 3 -14 12 0 15 -12 13 -53 -2
-43 -8 -59 -29 -80 -31 -31 -34 -51 -7 -42 26 8 36 -33 14 -57 -9 -10 -11 -18
-5 -18 6 0 14 5 17 10 10 16 25 12 25 -7 0 -9 -12 -29 -26 -44 -46 -48 -21
-51 29 -3 54 52 74 54 28 3 -17 -18 -31 -39 -31 -46 0 -7 -5 -13 -11 -13 -5 0
-7 -5 -3 -11 4 -7 20 3 43 25 41 40 65 37 28 -3 -36 -40 -84 -107 -67 -95 8 6
34 25 58 43 23 18 42 28 42 22 0 -6 -4 -11 -9 -11 -11 0 -52 -62 -46 -69 3 -2
20 12 39 32 37 39 52 47 42 22 -3 -8 -1 -15 5 -15 6 0 6 -8 -1 -21 -17 -31 -7
-33 20 -4 13 14 29 25 37 25 19 0 16 -27 -7 -50 -11 -11 -20 -22 -20 -25 0
-11 24 -4 41 11 29 26 43 12 19 -19 -26 -33 -7 -37 27 -5 25 23 44 18 24 -6
-7 -8 -9 -21 -5 -27 4 -7 -1 -18 -11 -25 -10 -8 -15 -17 -11 -21 4 -4 21 8 37
27 36 44 38 29 3 -17 -39 -52 -19 -54 26 -3 38 44 52 49 28 11 -15 -24 -3 -55
18 -47 15 6 14 3 -1 -20 -17 -26 -17 -27 0 -20 14 5 17 2 12 -20 -4 -25 -3
-24 34 12 28 27 39 33 39 22 0 -9 -4 -19 -9 -22 -5 -3 -7 -15 -4 -25 3 -10 0
-22 -6 -25 -6 -4 -11 -14 -11 -22 0 -14 2 -14 15 0 9 8 22 13 31 9 8 -3 25 3
37 13 22 19 22 19 5 -2 -10 -11 -18 -24 -18 -28 0 -4 -10 -20 -22 -36 -12 -16
-19 -32 -16 -35 3 -3 31 29 62 71 32 41 60 73 63 70 4 -3 -1 -14 -10 -24 -10
-10 -17 -24 -17 -30 0 -7 -4 -12 -8 -12 -9 0 -32 -44 -32 -58 1 -4 9 4 20 16
11 13 25 25 32 26 7 1 23 7 35 14 12 7 24 12 27 12 12 0 6 -22 -12 -48 -10
-15 -22 -35 -25 -44 -11 -30 7 -20 27 15 16 27 19 29 25 14 6 -17 9 -16 34 7
34 31 35 22 2 -26 -30 -45 -33 -60 -5 -30 27 29 44 29 29 1 -19 -36 4 -13 46
45 22 31 44 56 49 56 5 0 4 -6 -1 -12 -18 -23 -63 -108 -57 -108 3 0 15 11 26
26 25 31 32 26 18 -11 -17 -45 -5 -39 34 16 21 28 40 49 42 46 3 -3 -6 -28
-20 -56 -31 -60 -17 -69 16 -11 13 22 26 40 31 40 12 0 8 -18 -5 -22 -12 -4
-16 -63 -5 -74 4 -4 15 4 26 17 11 13 20 19 21 12 0 -6 -6 -13 -12 -16 -7 -2
-10 -8 -6 -12 5 -5 16 0 27 9 19 17 19 17 6 -21 -21 -56 -18 -73 5 -44 15 18
20 19 20 7 0 -26 14 -19 29 15 7 16 16 28 18 25 3 -3 -2 -21 -11 -40 -20 -42
-20 -52 -1 -36 8 7 15 20 15 29 1 14 50 84 50 71 0 -5 -4 -18 -29 -100 -6 -18
-6 -30 0 -30 5 0 9 7 9 15 0 8 4 15 9 15 5 0 12 11 15 25 4 14 11 25 16 25 13
0 8 -39 -7 -44 -7 -3 -13 -13 -13 -23 0 -13 2 -15 9 -5 6 10 10 10 20 -2 7 -8
8 -17 2 -20 -5 -4 -5 -15 2 -30 l11 -23 18 21 c15 18 19 19 27 6 8 -11 14 -4
30 32 24 56 44 73 30 26 -13 -46 -11 -56 6 -34 22 29 27 14 10 -27 -21 -52
-18 -68 6 -27 l20 35 -6 -43 -6 -44 30 24 c16 12 32 30 35 38 2 8 2 -3 0 -25
-5 -38 -4 -39 10 -21 14 17 16 18 16 3 0 -22 6 -21 32 5 l22 22 6 -24 c3 -14
14 -26 24 -28 10 -2 16 0 12 6 -3 5 2 16 11 23 15 13 15 10 9 -24 -7 -36 -6
-38 13 -32 15 5 21 2 21 -9 0 -9 5 -16 10 -16 6 0 10 7 10 16 0 10 5 14 15 10
11 -4 19 3 26 22 10 25 12 26 19 7 6 -14 9 -16 9 -4 1 8 12 26 26 39 l25 24
-6 -32 c-6 -29 -4 -32 12 -26 12 3 15 3 8 -3 -13 -9 -14 -93 -2 -93 5 0 8 7 8
15 0 14 19 19 58 18 9 -1 12 6 9 17 -3 12 0 17 7 14 7 -3 21 4 31 16 10 11 24
20 31 20 7 0 15 8 18 18 3 9 3 0 0 -21 -5 -36 -4 -37 15 -25 12 7 21 20 21 30
0 9 4 19 9 22 5 3 12 25 15 48 4 24 13 54 21 68 16 28 18 15 6 -47 -10 -54 2
-75 18 -31 27 71 31 79 41 73 9 -6 7 -27 -7 -79 -3 -12 -1 -16 6 -12 6 4 11 0
11 -8 0 -9 5 -16 10 -16 6 0 10 9 10 20 0 11 5 20 11 20 6 0 13 -9 16 -20 7
-28 17 -25 36 13 10 20 16 26 16 15 1 -22 17 -24 25 -3 10 28 28 16 24 -15 -3
-16 -1 -30 3 -30 4 0 10 14 14 30 8 37 25 40 25 4 0 -20 3 -24 13 -16 6 5 23
12 37 14 17 2 31 17 49 50 14 26 23 50 19 53 -3 3 -30 10 -59 16 -178 33 -400
81 -439 95 -13 4 -13 6 0 15 12 8 11 9 -6 5 -11 -4 -40 -2 -65 3 -80 17 -134
31 -154 40 -35 15 -109 39 -142 46 -18 4 -35 11 -38 16 -4 5 -13 9 -22 9 -8 0
-29 6 -46 14 -147 65 -157 70 -145 79 9 6 7 7 -6 3 -21 -7 -82 14 -201 69 -44
20 -116 53 -160 73 -90 42 -271 144 -332 188 -181 130 -278 224 -329 317 -21
39 -26 62 -26 118 -1 38 -1 68 -2 68 -1 -1 -13 -14 -28 -30z m1619 -1321 c-3
-8 -6 -5 -6 6 -1 11 2 17 5 13 3 -3 4 -12 1 -19z m-12 -28 c3 -5 1 -10 -4 -10
-6 0 -11 5 -11 10 0 6 2 10 4 10 3 0 8 -4 11 -10z"/>
<path d="M7931 8710 c-9 -5 -8 -9 5 -14 9 -4 21 -3 26 2 12 12 -15 23 -31 12z"/>
<path d="M9800 8710 c0 -5 14 -10 32 -10 36 0 33 9 -6 16 -14 2 -26 0 -26 -6z"/>
<path d="M8028 8693 c7 -3 16 -2 19 1 4 3 -2 6 -13 5 -11 0 -14 -3 -6 -6z"/>
<path d="M10328 8693 c7 -3 16 -2 19 1 4 3 -2 6 -13 5 -11 0 -14 -3 -6 -6z"/>
<path d="M11601 8679 c-35 -29 -22 -31 19 -3 19 13 28 24 20 24 -8 -1 -26 -10
-39 -21z"/>
<path d="M10378 8673 c7 -3 16 -2 19 1 4 3 -2 6 -13 5 -11 0 -14 -3 -6 -6z"/>
<path d="M5339 8638 c-37 -21 -63 -43 -75 -67 -10 -20 -53 -70 -94 -112 -75
-75 -124 -148 -193 -284 -61 -121 -79 -175 -59 -175 4 0 16 23 27 51 52 147
167 310 355 505 80 83 106 114 98 114 -2 0 -28 -15 -59 -32z"/>
<path d="M11455 8639 c-11 -17 1 -21 15 -4 8 9 8 15 2 15 -6 0 -14 -5 -17 -11z"/>
<path d="M11520 8619 c-47 -31 -190 -184 -242 -257 -32 -47 -78 -144 -78 -167
0 -8 5 -15 10 -15 6 0 10 6 10 13 0 15 79 111 95 116 23 6 12 -19 -30 -68 -37
-43 -45 -60 -45 -92 0 -36 3 -41 35 -55 19 -7 45 -14 58 -14 21 0 23 4 19 31
-3 23 -8 29 -21 23 -38 -15 -51 -16 -57 -1 -12 33 78 161 108 153 21 -5 51 44
42 68 -3 9 4 25 19 38 23 21 24 28 17 68 -7 39 -5 48 16 73 13 16 24 35 24 43
0 8 13 20 29 25 25 9 48 35 39 45 -2 1 -24 -11 -48 -27z m-93 -165 c-3 -3 -12
-4 -19 -1 -8 3 -5 6 6 6 11 1 17 -2 13 -5z"/>
<path d="M7639 8636 c-2 -3 -16 -7 -29 -9 -43 -9 -57 -17 -71 -43 -16 -30 -65
-68 -78 -60 -5 3 -8 -2 -7 -11 0 -10 -8 -19 -19 -21 -27 -5 -57 -33 -51 -48 5
-13 -29 -54 -44 -54 -6 0 -10 -14 -10 -31 0 -29 3 -27 93 65 50 52 121 116
157 143 36 27 67 52 68 57 4 9 -3 18 -9 12z"/>
<path d="M6020 8587 c0 -8 16 -34 36 -60 37 -47 39 -76 4 -57 -32 17 -42 12
-36 -17 3 -16 15 -106 28 -200 15 -119 26 -173 34 -173 8 0 14 17 16 42 2 31
8 44 21 46 13 3 17 -4 18 -30 1 -30 2 -29 10 12 6 29 19 54 39 73 34 31 36 43
15 71 -22 28 -18 63 7 80 30 21 45 20 53 -3 8 -25 -12 -145 -25 -149 -6 -2 -9
-33 -9 -70 1 -37 4 -58 6 -47 3 11 11 23 18 28 9 5 12 19 8 43 -5 29 -3 36 8
32 18 -6 24 -47 10 -61 -13 -13 -15 -87 -3 -87 5 0 20 51 35 113 15 61 35 147
45 190 11 42 16 80 11 83 -13 8 -46 -75 -53 -131 -3 -27 -11 -54 -16 -59 -16
-16 -12 88 5 110 27 35 19 44 -41 44 -52 0 -55 1 -52 23 2 17 15 26 53 38 48
17 72 39 41 39 -9 0 -42 -9 -73 -20 -67 -23 -76 -24 -71 -7 3 6 18 14 33 17
33 6 36 23 5 28 -23 4 -52 40 -44 56 3 6 -2 2 -10 -8 -9 -11 -16 -26 -16 -33
0 -8 -12 -13 -31 -13 -25 0 -32 6 -45 35 -14 35 -34 47 -34 22z m92 -252 c6
-25 4 -42 -3 -51 -26 -31 -51 32 -33 81 10 26 28 12 36 -30z"/>
<path d="M12244 8582 c3 -5 7 -36 10 -69 4 -62 19 -103 36 -103 13 0 13 38 1
76 -5 16 -12 46 -16 67 -4 24 -11 37 -21 37 -8 0 -13 -4 -10 -8z"/>
<path d="M7820 8550 c0 -6 26 -10 59 -10 33 0 63 5 66 10 4 6 -18 10 -59 10
-37 0 -66 -4 -66 -10z"/>
<path d="M10707 8553 c-4 -3 -1 -13 5 -21 10 -11 9 -17 -5 -27 -22 -16 -22
-25 2 -25 11 0 27 10 35 22 14 20 14 24 -1 40 -17 19 -26 22 -36 11z"/>
<path d="M6890 8521 c0 -13 40 -61 51 -61 17 0 9 26 -14 48 -25 23 -37 28 -37
13z"/>
<path d="M11340 8520 c-8 -5 -12 -12 -9 -15 4 -3 12 1 19 10 14 17 11 19 -10
5z"/>
<path d="M8758 8508 c-3 -7 6 -18 20 -25 32 -17 34 -17 30 10 -3 24 -43 37
-50 15z"/>
<path d="M12223 8475 c-6 -11 -15 -42 -19 -70 -14 -86 -15 -89 -23 -40 -5 34
-10 40 -33 43 -27 3 -38 -11 -18 -23 15 -9 12 -51 -3 -64 -17 -13 -27 -5 -28
23 0 19 -1 18 -10 -4 -6 -14 -18 -34 -28 -45 -13 -14 -18 -35 -17 -75 1 -48 4
-55 21 -55 12 0 21 8 23 20 4 21 50 75 64 75 4 0 8 -8 8 -19 0 -29 23 -43 54
-31 25 9 36 30 16 30 -5 0 -10 5 -10 10 0 6 6 10 13 10 6 0 24 14 39 32 l27
33 1 -42 c0 -24 5 -43 10 -43 6 0 10 32 10 76 0 73 -1 75 -22 69 -13 -4 -28
-13 -34 -21 -19 -24 -23 -16 -26 59 -3 60 -5 69 -15 52z"/>
<path d="M8199 8443 c-2 -19 3 -89 8 -96 3 -4 11 -3 19 4 20 16 18 85 -2 93
-20 8 -24 8 -25 -1z"/>
<path d="M6916 8415 c4 -16 0 -34 -10 -50 -17 -26 -9 -34 12 -13 15 15 16 88
2 88 -6 0 -8 -11 -4 -25z"/>
<path d="M6986 8418 c-19 -60 -16 -81 10 -71 16 6 20 83 4 83 -6 0 -12 -6 -14
-12z"/>
<path d="M5836 8405 c4 -11 11 -56 14 -100 l7 -80 1 81 c2 60 -2 85 -14 100
-15 19 -16 19 -8 -1z"/>
<path d="M7101 8394 c0 -11 3 -14 6 -6 3 7 2 16 -1 19 -3 4 -6 -2 -5 -13z"/>
<path d="M8710 8390 c0 -5 5 -10 10 -10 6 0 10 5 10 10 0 6 -4 10 -10 10 -5 0
-10 -4 -10 -10z"/>
<path d="M9031 8381 c-16 -29 -13 -41 9 -41 15 0 20 7 20 24 0 33 -16 42 -29
17z"/>
<path d="M8115 8370 c3 -5 8 -10 11 -10 2 0 4 5 4 10 0 6 -5 10 -11 10 -5 0
-7 -4 -4 -10z"/>
<path d="M10260 8370 c0 -5 9 -10 20 -10 11 0 23 0 27 -1 4 0 9 4 11 10 2 6
-10 11 -27 11 -17 0 -31 -4 -31 -10z"/>
<path d="M10370 8355 c-13 -14 -31 -25 -40 -25 -23 0 -52 -34 -44 -53 5 -13
-79 -136 -179 -264 -6 -9 -6 -13 1 -13 9 0 281 327 305 367 14 23 -18 14 -43
-12z"/>
<path d="M6846 8299 c-11 -11 -15 -19 -9 -19 12 0 38 28 32 34 -2 2 -13 -5
-23 -15z"/>
<path d="M7053 8240 c-29 -42 -53 -81 -53 -85 0 -4 -18 -28 -40 -52 -72 -77
-31 -66 60 17 48 44 92 80 97 80 6 0 8 11 6 24 -3 13 0 33 6 44 8 15 7 23 -7
35 -16 14 -21 9 -69 -63z"/>
<path d="M6889 8244 c-22 -30 -38 -59 -34 -62 8 -8 94 88 95 106 0 25 -21 10
-61 -44z"/>
<path d="M8862 8266 c-6 -13 -14 -40 -17 -60 -6 -27 -12 -36 -27 -36 -18 0
-20 -4 -14 -32 12 -62 23 -52 61 56 16 48 23 82 18 87 -6 6 -14 0 -21 -15z"/>
<path d="M8663 8240 c-10 -15 -9 -25 3 -49 23 -47 40 -40 46 19 2 14 -2 25
-10 25 -7 0 -16 5 -20 12 -6 9 -11 7 -19 -7z"/>
<path d="M7272 8230 c-14 -23 -16 -40 -3 -40 9 0 25 49 19 56 -2 2 -9 -6 -16
-16z"/>
<path d="M11974 8236 c-28 -8 -30 -13 -30 -49 1 -24 -4 -42 -11 -44 -8 -3 -13
4 -13 16 0 12 -4 21 -9 21 -14 0 -19 -81 -7 -118 8 -26 6 -36 -7 -49 -17 -17
-22 -11 -41 50 -11 34 -28 12 -32 -41 -4 -56 -3 -58 27 -42 16 9 19 7 19 -15
0 -23 2 -24 20 -15 11 6 31 32 45 58 36 69 49 82 72 76 26 -7 42 15 20 28 -14
7 -15 19 -11 67 4 32 3 60 -2 63 -5 2 -23 0 -40 -6z"/>
<path d="M5835 8190 c-4 -12 -5 -24 -2 -27 3 -2 8 5 12 17 4 12 5 24 2 27 -3
2 -8 -5 -12 -17z"/>
<path d="M8360 8190 c0 -5 4 -10 9 -10 6 0 13 5 16 10 3 6 -1 10 -9 10 -9 0
-16 -4 -16 -10z"/>
<path d="M8313 8183 c-7 -3 -13 -11 -13 -18 0 -7 -28 -23 -62 -34 l-63 -21 80
5 c113 8 165 16 165 26 0 5 -9 9 -21 9 -20 0 -60 17 -69 30 -3 4 -11 5 -17 3z"/>
<path d="M1830 8169 c0 -5 5 -7 10 -4 6 3 10 8 10 11 0 2 -4 4 -10 4 -5 0 -10
-5 -10 -11z"/>
<path d="M5105 8119 c-15 -28 -24 -54 -21 -57 8 -7 8 -6 39 50 15 26 22 50 17
53 -5 3 -21 -17 -35 -46z"/>
<path d="M11045 8160 c-19 -8 -19 -9 3 -9 12 -1 22 4 22 9 0 6 -1 10 -2 9 -2
0 -12 -4 -23 -9z"/>
<path d="M8596 8141 c-12 -13 -14 -21 -6 -26 14 -8 15 -7 24 23 9 27 4 28 -18
3z"/>
<path d="M6516 8118 c-9 -33 -8 -38 8 -38 23 0 29 18 13 40 -14 21 -14 21 -21
-2z"/>
<path d="M12135 8130 c-3 -5 -1 -10 4 -10 6 0 11 5 11 10 0 6 -2 10 -4 10 -3
0 -8 -4 -11 -10z"/>
<path d="M8649 8099 c-8 -15 -8 -24 0 -32 13 -13 18 -9 26 26 9 33 -9 37 -26
6z"/>
<path d="M7783 8093 c9 -2 25 -2 35 0 9 3 1 5 -18 5 -19 0 -27 -2 -17 -5z"/>
<path d="M9511 8091 c-44 -6 -71 -31 -33 -31 11 0 25 -7 32 -15 14 -17 136
-22 125 -5 -3 6 -14 10 -24 10 -10 0 -23 11 -29 25 -6 14 -15 24 -19 23 -5 0
-28 -4 -52 -7z"/>
<path d="M7903 8083 c9 -2 23 -2 30 0 6 3 -1 5 -18 5 -16 0 -22 -2 -12 -5z"/>
<path d="M8901 8049 c-6 -18 -11 -34 -11 -35 0 -2 18 -4 40 -4 56 0 137 19
151 36 15 18 7 18 -38 -1 -19 -8 -53 -15 -74 -15 -35 0 -39 3 -39 25 0 35 -16
31 -29 -6z"/>
<path d="M11014 8069 c-23 -7 -33 -17 -42 -46 -15 -48 -10 -52 18 -14 12 17
28 31 35 31 28 0 26 -23 -6 -63 -31 -39 -34 -47 -33 -110 0 -49 5 -71 16 -80
30 -23 61 -113 54 -157 -3 -22 -4 -40 0 -40 15 0 64 61 64 79 0 16 6 21 26 21
39 0 64 18 64 45 0 24 -23 35 -34 16 -11 -17 -46 -19 -61 -4 -16 15 -12 68 7
106 17 33 78 18 78 -20 0 -15 12 -34 30 -50 18 -15 30 -34 30 -49 0 -29 -24
-79 -43 -91 -7 -4 -21 -21 -31 -37 -17 -26 -17 -30 -2 -38 9 -5 16 -20 16 -33
0 -14 5 -25 10 -25 6 0 10 8 10 18 0 10 6 26 13 37 8 11 22 41 32 67 16 44 21
48 68 62 49 14 77 9 77 -15 0 -16 -32 -39 -54 -39 -43 0 -73 -56 -61 -116 10
-56 45 -39 45 21 0 14 9 29 20 35 17 9 23 5 42 -25 13 -19 27 -35 31 -35 5 0
6 4 2 9 -3 5 2 28 11 51 12 31 14 44 5 53 -6 6 -11 19 -11 29 0 30 34 21 68
-18 39 -44 61 -36 32 12 l-21 34 23 9 c13 5 31 12 41 15 21 7 23 44 1 53 -11
4 -13 13 -8 37 6 30 6 30 -12 14 -14 -12 -24 -14 -37 -7 -13 8 -19 6 -23 -5
-7 -19 3 -36 22 -36 8 0 14 -4 14 -10 0 -15 -46 -23 -67 -11 -34 17 -130 16
-151 -2 -10 -9 -23 -13 -30 -8 -11 7 -11 15 2 45 l15 37 59 -7 c47 -5 65 -3
85 11 15 9 34 14 45 11 12 -4 24 0 32 9 8 9 27 22 43 28 l29 12 -60 38 c-71
46 -142 77 -281 123 -107 35 -182 42 -247 23z m104 -108 c-7 -78 -64 -202 -69
-148 -1 6 -1 18 0 25 1 8 -5 22 -14 32 -16 18 -15 22 9 74 49 102 81 110 74
17z m188 14 c9 -21 -14 -45 -43 -45 -13 0 -37 -7 -52 -15 -30 -15 -41 -11 -41
14 0 41 122 82 136 46z m111 -61 c7 -19 -21 -44 -49 -44 -24 0 -34 26 -18 45
17 20 59 19 67 -1z m99 -21 c-10 -10 -19 5 -10 18 6 11 8 11 12 0 2 -7 1 -15
-2 -18z"/>
<path d="M10073 8050 c-20 -16 -21 -30 -2 -30 9 0 33 40 27 45 -2 2 -13 -5
-25 -15z"/>
<path d="M11405 8054 c53 -28 95 -43 95 -35 0 10 -92 51 -112 51 -7 0 1 -7 17
-16z"/>
<path d="M12043 8063 c-7 -2 -13 -17 -13 -32 0 -15 -5 -32 -12 -39 -15 -15 -4
-26 17 -18 18 7 48 72 40 86 -7 11 -13 11 -32 3z"/>
<path d="M5820 7975 c-18 -46 -32 -88 -31 -92 0 -4 11 -8 24 -8 17 0 28 13 49
55 15 30 27 63 27 73 1 22 -17 57 -29 57 -4 0 -23 -38 -40 -85z"/>
<path d="M2718 8033 c7 -3 16 -2 19 1 4 3 -2 6 -13 5 -11 0 -14 -3 -6 -6z"/>
<path d="M4372 8020 c0 -14 2 -19 5 -12 2 6 2 18 0 25 -3 6 -5 1 -5 -13z"/>
<path d="M8765 8010 c-4 -17 -4 -34 0 -38 9 -10 36 29 33 47 -6 28 -26 22 -33
-9z"/>
<path d="M9016 7991 c-96 -21 -120 -47 -35 -38 67 7 131 28 137 45 5 15 -2 14
-102 -7z"/>
<path d="M11511 8007 c2 -1 13 -9 24 -17 19 -14 19 -14 6 3 -7 9 -18 17 -24
17 -6 0 -8 -1 -6 -3z"/>
<path d="M8596 7984 c-10 -26 5 -39 21 -19 7 11 13 22 13 27 0 15 -28 8 -34
-8z"/>
<path d="M11757 7993 c-10 -9 -9 -23 2 -23 5 0 11 7 15 15 5 15 -5 20 -17 8z"/>
<path d="M8408 7977 c-111 -14 -101 -32 12 -23 57 4 90 3 90 -3 0 -5 -4 -12
-9 -15 -4 -3 -11 -25 -14 -48 -2 -24 -8 -52 -12 -63 -6 -14 -5 -17 3 -10 11
11 72 151 72 166 0 11 -37 10 -142 -4z"/>
<path d="M5971 7943 c-13 -46 3 -70 19 -29 5 15 10 36 10 47 0 32 -18 21 -29
-18z"/>
<path d="M9990 7961 c-7 -15 -7 -21 0 -21 12 0 25 28 17 36 -3 3 -10 -4 -17
-15z"/>
<path d="M6230 7930 c0 -25 4 -39 10 -35 6 3 10 19 10 35 0 16 -4 32 -10 35
-6 4 -10 -10 -10 -35z"/>
<path d="M10225 7957 c-61 -75 -85 -107 -85 -114 1 -10 110 109 110 120 0 11
-14 8 -25 -6z"/>
<path d="M11782 7920 c-23 -41 -17 -53 12 -24 22 22 36 50 29 58 -12 11 -18 6
-41 -34z"/>
<path d="M7859 7932 c-61 -3 -66 -5 -62 -23 6 -20 10 -20 105 -3 28 6 45 20
31 26 -5 2 -38 2 -74 0z"/>
<path d="M9485 7929 c-4 -6 -5 -13 -2 -16 7 -7 27 6 27 18 0 12 -17 12 -25 -2z"/>
<path d="M11649 7906 c16 -19 55 -22 49 -3 -3 6 -17 14 -33 15 -25 3 -27 2
-16 -12z"/>
<path d="M4890 7834 c0 -47 4 -73 10 -69 6 3 10 37 10 76 0 39 -4 69 -10 69
-6 0 -10 -32 -10 -76z"/>
<path d="M8364 7886 c-16 -13 -27 -27 -24 -29 3 -3 18 6 34 19 15 14 26 27 23
30 -2 3 -18 -6 -33 -20z"/>
<path d="M9971 7858 c-44 -54 -47 -84 -4 -33 14 17 34 40 44 53 21 25 23 32
10 32 -5 0 -28 -23 -50 -52z"/>
<path d="M12370 7895 c0 -8 7 -15 16 -15 14 0 14 3 4 15 -7 8 -14 15 -16 15
-2 0 -4 -7 -4 -15z"/>
<path d="M8990 7814 c-101 -24 -189 -49 -194 -54 -19 -19 8 -31 44 -19 19 7
76 13 125 15 50 2 108 5 130 7 22 2 51 -3 65 -10 41 -21 45 -17 42 47 -3 38
-8 60 -15 59 -7 -1 -95 -21 -197 -45z"/>
<path d="M12488 7853 c7 -3 16 -2 19 1 4 3 -2 6 -13 5 -11 0 -14 -3 -6 -6z"/>
<path d="M5725 7810 c-15 -22 -26 -43 -23 -46 6 -5 68 68 68 80 0 17 -20 2
-45 -34z"/>
<path d="M6171 7822 c-1 -13 -5 -32 -11 -42 -5 -10 -12 -44 -15 -76 -6 -71 -3
-64 20 38 9 42 15 83 12 90 -3 7 -6 3 -6 -10z"/>
<path d="M8307 7788 c-8 -29 -18 -65 -21 -80 -3 -14 -9 -33 -12 -42 -3 -9 -2
-16 4 -16 13 0 29 43 45 123 16 79 5 90 -16 15z"/>
<path d="M7422 7810 c0 -14 2 -19 5 -12 2 6 2 18 0 25 -3 6 -5 1 -5 -13z"/>
<path d="M9851 7816 c-9 -10 -8 -16 4 -26 20 -16 38 -1 29 23 -8 21 -18 22
-33 3z"/>
<path d="M11923 7813 c-4 -10 -17 -32 -30 -49 -27 -36 -28 -44 -9 -44 14 0 66
78 66 99 0 18 -20 13 -27 -6z"/>
<path d="M6462 7808 c-7 -7 -12 -18 -12 -25 0 -11 4 -11 20 -1 11 7 20 18 20
25 0 16 -12 17 -28 1z"/>
<path d="M10071 7769 c-23 -29 -41 -57 -41 -63 0 -15 89 86 90 102 0 20 -6 15
-49 -39z"/>
<path d="M7770 7806 c0 -2 7 -6 15 -10 8 -3 15 -1 15 4 0 6 -7 10 -15 10 -8 0
-15 -2 -15 -4z"/>
<path d="M7874 7674 c-111 -113 -164 -152 -147 -108 5 15 4 15 -20 -1 -14 -9
-24 -22 -21 -30 7 -18 -14 -29 -30 -16 -7 6 -21 8 -30 5 -13 -5 -14 -9 -4 -21
10 -12 8 -18 -12 -35 l-25 -19 51 4 c36 3 64 13 100 37 105 71 315 315 267
309 -5 0 -63 -57 -129 -125z"/>
<path d="M12265 7793 c-40 -9 -201 -87 -250 -121 -60 -41 -64 -57 -13 -56 26
1 48 10 73 33 20 17 46 32 58 32 53 4 153 -4 162 -12 12 -12 45 -12 45 1 0 5
-21 22 -47 37 l-48 28 64 3 c69 3 101 -13 101 -51 0 -19 9 -20 52 -2 11 4 18
0 23 -14 11 -36 35 -25 35 16 0 34 -1 35 -18 19 -18 -15 -20 -15 -36 2 -15 18
-15 20 0 32 12 11 20 11 35 2 16 -10 19 -9 19 3 0 8 -15 24 -32 35 -27 16 -50
20 -118 19 -47 -1 -94 -3 -105 -6z"/>
<path d="M4842 7765 c0 -16 2 -22 5 -12 2 9 2 23 0 30 -3 6 -5 -1 -5 -18z"/>
<path d="M9503 7774 c-3 -8 -1 -25 5 -37 10 -20 11 -18 11 16 1 39 -5 48 -16
21z"/>
<path d="M4311 7764 c0 -11 3 -14 6 -6 3 7 2 16 -1 19 -3 4 -6 -2 -5 -13z"/>
<path d="M7840 7775 c0 -3 9 -14 20 -25 22 -22 45 -18 61 11 9 17 6 19 -36 19
-25 0 -45 -2 -45 -5z"/>
<path d="M2440 7759 c0 -5 5 -7 10 -4 6 3 10 8 10 11 0 2 -4 4 -10 4 -5 0 -10
-5 -10 -11z"/>
<path d="M8425 7715 c-9 -26 -15 -48 -12 -51 3 -3 13 15 22 41 10 25 16 48 13
50 -3 3 -13 -15 -23 -40z"/>
<path d="M3490 7730 c0 -5 5 -10 11 -10 5 0 7 5 4 10 -3 6 -8 10 -11 10 -2 0
-4 -4 -4 -10z"/>
<path d="M10937 7734 c-11 -12 -8 -23 13 -44 21 -21 40 -26 40 -11 0 16 -45
63 -53 55z"/>
<path d="M12610 7711 c0 -11 29 -35 35 -29 2 2 -4 12 -15 21 -11 9 -20 13 -20
8z"/>
<path d="M11621 7697 c-14 -17 -4 -47 15 -47 22 0 29 29 12 46 -13 13 -16 13
-27 1z"/>
<path d="M11810 7654 c-69 -51 -54 -98 17 -54 33 19 53 64 37 80 -5 4 -29 -7
-54 -26z"/>
<path d="M9160 7653 c1 -27 1 -27 15 -9 19 25 19 36 0 36 -10 0 -15 -10 -15
-27z"/>
<path d="M9207 7654 c-4 -4 -7 -18 -7 -31 0 -14 -6 -23 -16 -23 -25 0 -12 -35
15 -38 22 -4 23 -7 19 -66 -4 -61 -3 -64 25 -80 17 -9 32 -15 34 -12 7 7 -25
158 -35 165 -4 3 -7 24 -7 45 0 37 -13 55 -28 40z"/>
<path d="M4261 7624 c0 -11 3 -14 6 -6 3 7 2 16 -1 19 -3 4 -6 -2 -5 -13z"/>
<path d="M9507 7624 c-4 -4 -7 -19 -6 -33 l0 -26 10 24 c10 26 8 47 -4 35z"/>
<path d="M12150 7621 c0 -44 43 -78 87 -69 22 4 29 41 11 55 -19 16 -98 27
-98 14z"/>
<path d="M12828 7623 c7 -3 16 -2 19 1 4 3 -2 6 -13 5 -11 0 -14 -3 -6 -6z"/>
<path d="M4520 7598 c0 -19 2 -20 10 -8 13 19 13 30 0 30 -5 0 -10 -10 -10
-22z"/>
<path d="M3988 7603 c7 -3 16 -2 19 1 4 3 -2 6 -13 5 -11 0 -14 -3 -6 -6z"/>
<path d="M12608 7603 c-29 -7 -21 -20 28 -47 42 -24 50 -25 80 -14 29 10 39 9
71 -7 21 -11 47 -18 59 -17 51 6 255 -109 389 -218 92 -76 285 -286 285 -311
0 -5 5 -9 10 -9 20 0 9 29 -34 86 -215 284 -353 393 -617 489 -111 41 -226 61
-271 48z"/>
<path d="M4170 7580 c-12 -8 -11 -10 8 -10 12 0 22 5 22 10 0 13 -11 13 -30 0z"/>
<path d="M10070 7575 c0 -8 7 -15 15 -15 8 0 15 7 15 15 0 8 -7 15 -15 15 -8
0 -15 -7 -15 -15z"/>
<path d="M11590 7580 c0 -5 7 -10 16 -10 8 0 12 5 9 10 -3 6 -10 10 -16 10 -5
0 -9 -4 -9 -10z"/>
<path d="M4211 7553 c-12 -14 -24 -36 -26 -47 -21 -94 -23 -110 -12 -126 8
-14 7 -22 -6 -34 -10 -11 -16 -33 -16 -59 1 -23 -4 -61 -10 -84 -6 -24 -16
-62 -22 -85 -5 -24 -14 -47 -20 -52 -11 -12 -12 -66 -1 -66 8 0 15 24 43 135
5 22 14 49 19 60 5 11 14 43 20 70 6 28 18 79 26 115 8 36 20 87 25 115 6 27
15 58 20 67 16 29 -16 22 -40 -9z m-4 -90 c-3 -10 -5 -4 -5 12 0 17 2 24 5 18
2 -7 2 -21 0 -30z"/>
<path d="M4550 7560 c0 -11 5 -20 10 -20 6 0 10 9 10 20 0 11 -4 20 -10 20 -5
0 -10 -9 -10 -20z"/>
<path d="M10953 7573 c-17 -6 -17 -43 0 -43 14 0 39 35 30 44 -7 7 -12 7 -30
-1z"/>
<path d="M11110 7564 c0 -8 5 -12 10 -9 6 3 10 10 10 16 0 5 -4 9 -10 9 -5 0
-10 -7 -10 -16z"/>
<path d="M12060 7568 c1 -21 33 -56 55 -60 14 -2 21 -12 23 -36 4 -35 13 -40
32 -17 19 23 7 47 -30 59 -21 7 -40 21 -48 39 -13 28 -32 37 -32 15z"/>
<path d="M8240 7559 c0 -5 5 -7 10 -4 6 3 10 8 10 11 0 2 -4 4 -10 4 -5 0 -10
-5 -10 -11z"/>
<path d="M11642 7481 c-106 -110 -202 -220 -202 -232 0 -5 7 -13 17 -16 11 -4
23 3 37 22 40 53 241 255 255 255 8 0 11 6 7 16 -3 9 -6 22 -6 30 0 28 -26 10
-108 -75z"/>
<path d="M11963 7553 c-18 -7 -16 -30 3 -37 26 -10 44 -7 44 9 0 17 -29 34
-47 28z"/>
<path d="M5265 7530 c3 -5 17 -10 31 -10 13 0 24 5 24 10 0 6 -14 10 -31 10
-17 0 -28 -4 -24 -10z"/>
<path d="M5348 7533 c7 -3 16 -2 19 1 4 3 -2 6 -13 5 -11 0 -14 -3 -6 -6z"/>
<path d="M8226 7508 c-3 -13 -1 -27 4 -32 7 -7 10 1 10 22 0 37 -5 41 -14 10z"/>
<path d="M4356 7493 c-3 -16 -7 -48 -10 -73 l-5 -45 14 50 c7 28 17 60 20 73
5 13 3 22 -3 22 -6 0 -13 -12 -16 -27z"/>
<path d="M12575 7510 c4 -6 11 -8 16 -5 14 9 11 15 -7 15 -8 0 -12 -5 -9 -10z"/>
<path d="M12520 7491 c0 -14 18 -23 31 -15 8 4 7 9 -2 15 -18 11 -29 11 -29 0z"/>
<path d="M3070 7464 c0 -8 5 -12 10 -9 6 3 10 10 10 16 0 5 -4 9 -10 9 -5 0
-10 -7 -10 -16z"/>
<path d="M11465 7467 c-8 -19 12 -50 26 -41 13 7 11 17 -5 40 -14 18 -15 18
-21 1z"/>
<path d="M11892 7469 c2 -7 10 -15 17 -17 8 -3 12 1 9 9 -2 7 -10 15 -17 17
-8 3 -12 -1 -9 -9z"/>
<path d="M7866 7425 c-64 -50 -58 -61 14 -25 33 17 60 37 60 45 0 24 -24 17
-74 -20z"/>
<path d="M11312 7443 c-12 -22 -5 -43 13 -43 21 0 37 34 23 48 -16 16 -26 15
-36 -5z"/>
<path d="M12010 7450 c0 -5 4 -10 9 -10 6 0 13 5 16 10 3 6 -1 10 -9 10 -9 0
-16 -4 -16 -10z"/>
<path d="M12482 7438 c6 -18 28 -21 28 -4 0 9 -7 16 -16 16 -9 0 -14 -5 -12
-12z"/>
<path d="M5170 7433 c0 -13 70 -55 83 -50 7 2 -7 16 -30 30 -45 29 -53 32 -53
20z"/>
<path d="M9446 7421 c-6 -9 -3 -34 11 -83 2 -10 9 -18 15 -18 7 0 9 17 5 46
-5 48 -20 74 -31 55z"/>
<path d="M12396 7401 c15 -26 21 -28 38 -19 12 6 23 12 24 14 5 4 -55 34 -68
34 -7 0 -4 -12 6 -29z"/>
<path d="M8361 7397 c17 -32 19 -33 19 -10 0 12 -7 23 -15 27 -13 5 -14 2 -4
-17z"/>
<path d="M6790 7397 c0 -15 47 -63 54 -56 7 7 -34 69 -45 69 -5 0 -9 -6 -9
-13z"/>
<path d="M8435 7380 c-24 -26 -33 -110 -12 -110 16 0 61 113 49 124 -9 10 -18
7 -37 -14z"/>
<path d="M4371 7374 c0 -11 3 -14 6 -6 3 7 2 16 -1 19 -3 4 -6 -2 -5 -13z"/>
<path d="M9267 7383 c-4 -3 -7 -15 -7 -26 0 -13 5 -17 16 -13 9 3 20 6 25 6 5
0 9 9 9 20 0 20 -28 28 -43 13z"/>
<path d="M12340 7382 c0 -5 11 -18 23 -31 21 -18 26 -20 36 -7 10 11 6 17 -20
30 -37 18 -39 19 -39 8z"/>
<path d="M6365 7329 c-4 -12 -2 -26 4 -32 8 -8 11 -2 11 21 0 37 -6 41 -15 11z"/>
<path d="M10835 7339 c-10 -15 3 -25 16 -12 7 7 7 13 1 17 -6 3 -14 1 -17 -5z"/>
<path d="M4314 7306 c-3 -21 -4 -39 -1 -42 3 -4 9 10 13 30 3 21 4 39 1 42 -3
4 -9 -10 -13 -30z"/>
<path d="M6264 7306 c-6 -17 2 -36 17 -36 12 0 12 37 -1 45 -6 3 -13 -1 -16
-9z"/>
<path d="M7539 7306 c24 -14 75 -10 65 5 -3 5 -24 9 -47 9 -40 -1 -41 -1 -18
-14z"/>
<path d="M7920 7311 c0 -5 5 -13 10 -16 6 -3 10 -2 10 4 0 5 -4 13 -10 16 -5
3 -10 2 -10 -4z"/>
<path d="M10460 7311 c0 -12 8 -17 45 -25 l30 -7 -30 21 c-33 22 -45 25 -45
11z"/>
<path d="M12333 7299 c4 -13 7 -33 7 -43 0 -14 3 -17 11 -9 14 14 7 65 -10 71
-10 4 -12 -1 -8 -19z"/>
<path d="M7645 7290 c-4 -6 13 -10 45 -10 32 0 49 4 45 10 -3 6 -24 10 -45 10
-21 0 -42 -4 -45 -10z"/>
<path d="M9486 7263 c7 -42 23 -88 27 -82 2 2 1 30 -1 62 -3 41 -8 57 -18 57
-12 0 -13 -8 -8 -37z"/>
<path d="M10911 7289 c-94 -18 -261 -93 -329 -148 -67 -53 -113 -147 -82 -166
5 -3 16 7 24 23 12 24 20 28 41 24 24 -4 25 -2 19 22 -5 22 -3 26 15 26 11 0
28 8 38 19 20 20 62 33 107 31 28 -1 29 0 12 25 -29 44 10 65 43 23 21 -25 41
-17 41 18 0 30 4 30 44 -1 18 -14 38 -25 44 -25 15 0 15 23 1 37 -6 6 -8 17
-4 23 5 8 18 0 40 -24 39 -43 60 -47 51 -11 -9 37 2 50 26 29 16 -16 21 -16
28 -4 6 8 10 21 10 28 0 8 7 12 16 10 17 -3 28 -18 38 -50 3 -10 15 -18 26
-18 17 0 19 4 14 26 -6 23 -4 25 17 22 20 -2 24 -9 24 -40 1 -53 19 -68 43
-38 l19 24 37 -39 c21 -22 40 -52 43 -67 6 -31 14 -34 43 -16 17 11 23 8 49
-22 17 -19 30 -44 31 -55 0 -30 19 -45 56 -45 25 0 33 -5 38 -23 3 -13 17 -29
31 -35 14 -6 25 -20 25 -30 0 -11 9 -27 20 -37 11 -10 22 -33 26 -51 7 -39 21
-53 30 -29 10 25 -25 133 -61 190 -18 28 -42 66 -54 86 -25 43 -91 106 -152
145 -24 16 -46 32 -49 36 -3 4 -43 25 -89 48 -125 62 -267 83 -390 59z m606
-261 c-3 -8 -6 -5 -6 6 -1 11 2 17 5 13 3 -3 4 -12 1 -19z"/>
<path d="M9280 7247 c0 -22 8 -41 21 -53 l21 -19 -6 35 c-12 57 -17 70 -27 70
-5 0 -9 -15 -9 -33z"/>
<path d="M6903 7245 c37 -33 57 -32 27 0 -13 14 -31 25 -39 25 -11 -1 -8 -8
12 -25z"/>
<path d="M11880 7250 c0 -5 7 -10 15 -10 8 0 15 5 15 10 0 6 -7 10 -15 10 -8
0 -15 -4 -15 -10z"/>
<path d="M12240 7240 c0 -5 5 -10 10 -10 6 0 10 5 10 10 0 6 -4 10 -10 10 -5
0 -10 -4 -10 -10z"/>
<path d="M13250 7227 c0 -3 23 -32 50 -63 28 -31 50 -65 50 -74 0 -9 9 -25 21
-36 12 -11 19 -27 16 -40 -2 -12 2 -33 9 -45 7 -13 13 -18 14 -11 1 57 96 -75
134 -188 25 -72 25 -73 26 -34 0 102 -118 302 -259 438 -34 32 -61 56 -61 53z"/>
<path d="M7998 7168 c-3 -29 -9 -61 -13 -70 -5 -14 -2 -18 14 -18 19 0 21 6
21 54 0 30 3 61 6 70 4 10 1 16 -9 16 -10 0 -16 -15 -19 -52z"/>
<path d="M4291 7198 c0 -9 -4 -25 -7 -35 -5 -17 -5 -17 6 0 6 10 9 25 7 35 -4
15 -5 15 -6 0z"/>
<path d="M7220 7187 c0 -8 7 -20 16 -27 8 -8 27 -33 41 -58 l26 -44 -24 -19
c-13 -10 -32 -21 -41 -25 -24 -7 -23 -20 2 -27 16 -4 20 -14 20 -50 0 -25 4
-48 9 -51 11 -7 28 13 32 38 2 11 10 21 18 24 11 4 13 -8 9 -57 -2 -33 0 -61
5 -61 11 0 -13 298 -25 305 -2 0 -22 16 -45 34 -30 22 -43 28 -43 18z"/>
<path d="M12320 7186 c0 -24 17 -28 23 -6 3 13 0 20 -9 20 -8 0 -14 -6 -14
-14z"/>
<path d="M9511 7154 c0 -11 3 -14 6 -6 3 7 2 16 -1 19 -3 4 -6 -2 -5 -13z"/>
<path d="M12340 7101 c0 -8 18 -33 40 -57 22 -24 40 -48 40 -54 0 -14 -50 13
-72 39 -10 12 -23 21 -30 21 -7 -1 -1 -11 13 -23 14 -12 36 -37 48 -55 27 -39
70 -63 99 -55 17 4 36 -8 82 -53 33 -33 60 -65 60 -71 0 -21 61 -80 67 -65 12
30 73 -3 73 -40 0 -20 63 -83 68 -68 3 7 -8 25 -24 41 -26 28 -28 53 -2 32 21
-17 189 -100 238 -118 84 -31 195 -55 256 -55 82 0 102 21 111 113 8 92 24 89
37 -8 8 -57 -12 -104 -54 -127 -35 -20 -85 -20 -230 -2 -72 9 -24 -14 67 -32
95 -19 142 -10 194 37 18 17 49 38 67 45 38 17 44 51 10 56 -19 2 -24 12 -31
53 -5 28 -11 61 -14 75 l-5 25 -17 -23 -17 -23 -19 20 c-23 26 -35 27 -35 1 0
-23 -25 -27 -34 -5 -6 17 -15 19 -35 6 -13 -8 -12 -15 4 -45 19 -34 19 -36 0
-55 -24 -27 -51 -26 -138 5 -39 15 -92 33 -117 41 -25 8 -64 23 -88 34 -50 22
-58 24 -40 6 57 -56 237 -126 334 -130 47 -2 91 18 100 45 7 23 21 23 29 -1 8
-28 -4 -50 -39 -68 -70 -37 -196 -8 -385 89 -210 108 -251 136 -251 171 0 16
-5 18 -25 13 -22 -6 -36 5 -104 72 -43 44 -96 92 -117 108 -22 15 -56 44 -76
63 -21 19 -38 29 -38 22z"/>
<path d="M4247 7045 c-10 -33 -21 -66 -24 -74 -3 -8 0 -12 7 -9 16 5 42 91 38
121 -2 14 -10 1 -21 -38z"/>
<path d="M9460 7064 c0 -24 19 -54 35 -54 19 0 19 4 0 40 -17 32 -35 40 -35
14z"/>
<path d="M4285 7020 c-4 -23 -5 -44 -2 -46 3 -3 8 13 12 36 4 23 5 44 2 46 -3
3 -8 -13 -12 -36z"/>
<path d="M9362 7030 c0 -14 2 -19 5 -12 2 6 2 18 0 25 -3 6 -5 1 -5 -13z"/>
<path d="M11734 7042 c-6 -4 -19 -21 -29 -39 l-19 -32 32 -63 c17 -35 32 -56
32 -48 0 8 -7 28 -15 44 -22 42 -19 93 5 106 11 6 20 17 20 25 0 16 -9 19 -26
7z"/>
<path d="M11910 7040 c0 -5 5 -10 10 -10 6 0 10 5 10 10 0 6 -4 10 -10 10 -5
0 -10 -4 -10 -10z"/>
<path d="M7125 7030 c-4 -6 2 -22 14 -34 24 -26 28 -51 6 -42 -10 3 -15 -1
-15 -13 0 -10 -12 -44 -26 -75 -17 -37 -24 -67 -21 -84 7 -34 -43 -186 -77
-237 -31 -45 -33 -88 -6 -122 24 -31 25 -51 5 -80 -10 -14 -13 -32 -9 -47 3
-13 -1 -36 -9 -53 -17 -32 -103 -115 -166 -159 -36 -26 -54 -55 -33 -54 18 2
132 72 179 112 41 34 52 49 52 73 1 17 6 46 11 65 6 19 17 89 26 155 9 66 25
170 36 230 12 61 21 126 22 145 2 60 46 167 46 112 0 -13 6 -22 14 -22 27 0
16 79 -15 113 -18 19 -29 25 -34 17z"/>
<path d="M9420 7005 c0 -10 7 -15 18 -13 21 4 19 22 -2 26 -10 2 -16 -3 -16
-13z"/>
<path d="M10898 7013 c12 -2 30 -2 40 0 9 3 -1 5 -23 4 -22 0 -30 -2 -17 -4z"/>
<path d="M12496 7005 c4 -8 11 -15 16 -15 6 0 5 6 -2 15 -7 8 -14 15 -16 15
-2 0 -1 -7 2 -15z"/>
<path d="M7770 7000 c0 -5 -10 -10 -22 -10 -13 0 -47 -17 -76 -37 -41 -28 -56
-33 -62 -24 -6 10 -10 9 -18 -5 -5 -9 -23 -25 -39 -33 -73 -39 -133 -84 -131
-98 2 -8 -26 -41 -62 -73 -36 -32 -62 -61 -59 -64 3 -3 63 37 133 90 71 53
144 102 163 111 20 8 59 32 87 53 28 21 72 49 98 63 26 14 44 28 41 31 -10 10
-53 7 -53 -4z"/>
<path d="M4050 6985 c7 -8 16 -12 21 -9 13 8 1 24 -18 24 -13 0 -13 -3 -3 -15z"/>
<path d="M5888 6983 c7 -3 16 -2 19 1 4 3 -2 6 -13 5 -11 0 -14 -3 -6 -6z"/>
<path d="M11108 6969 c-10 -5 -18 -18 -18 -29 0 -16 3 -17 30 -7 18 7 29 18
28 26 -4 19 -19 23 -40 10z"/>
<path d="M10688 6947 c-19 -13 -46 -27 -61 -31 -15 -3 -37 -20 -49 -36 -15
-20 -30 -30 -48 -30 -30 0 -47 -28 -73 -120 -9 -30 -23 -80 -31 -110 -22 -77
-33 -189 -16 -173 7 6 17 46 22 90 13 100 35 178 65 225 12 21 23 42 23 48 0
5 7 10 14 10 13 0 13 -5 1 -32 -7 -18 -20 -67 -29 -108 -9 -41 -25 -104 -37
-140 -41 -124 -27 -475 20 -513 12 -10 13 -8 7 13 -20 73 -27 155 -22 255 6
113 27 220 45 238 16 16 14 -42 -5 -126 -30 -130 -7 -325 51 -422 40 -69 60
-58 25 13 -33 66 -48 132 -31 132 6 0 14 -8 18 -17 8 -25 42 -103 55 -130 18
-36 90 -80 161 -98 57 -14 78 -15 132 -6 68 12 125 38 125 58 0 8 -17 5 -55
-8 -64 -22 -152 -25 -200 -5 -18 8 -36 12 -39 9 -9 -9 -56 7 -56 18 0 6 7 8
15 5 23 -8 30 21 11 43 -16 18 -46 103 -46 134 0 29 16 19 35 -23 23 -52 39
-38 26 21 -6 24 -11 71 -11 104 -1 54 -2 58 -15 42 -7 -11 -17 -37 -20 -59 -5
-28 -14 -42 -31 -50 -21 -10 -24 -17 -19 -42 l6 -31 -33 40 c-18 21 -44 51
-57 65 -23 24 -23 29 -17 135 5 99 42 285 63 318 4 7 10 39 14 72 4 33 10 69
15 79 5 13 4 17 -4 12 -6 -4 -21 -33 -33 -66 -25 -70 -56 -106 -44 -52 4 19
13 45 21 60 8 15 14 32 14 39 0 22 23 63 35 63 7 0 23 16 36 35 13 19 42 44
64 55 29 14 34 20 19 20 -12 0 -37 -11 -56 -23z"/>
<path d="M6663 6953 c9 -2 23 -2 30 0 6 3 -1 5 -18 5 -16 0 -22 -2 -12 -5z"/>
<path d="M6838 6953 c6 -2 18 -2 25 0 6 3 1 5 -13 5 -14 0 -19 -2 -12 -5z"/>
<path d="M7843 6922 c-13 -14 -23 -29 -23 -33 0 -14 36 3 49 23 19 31 -1 39
-26 10z"/>
<path d="M4090 6905 c0 -22 4 -34 10 -30 6 3 10 17 10 30 0 13 -4 27 -10 30
-6 4 -10 -8 -10 -30z"/>
<path d="M6595 6930 c-3 -5 -2 -17 2 -25 8 -13 12 -13 27 -2 11 8 16 19 12 25
-9 15 -33 16 -41 2z"/>
<path d="M11215 6894 c-8 -20 -19 -53 -25 -74 -6 -22 -17 -46 -25 -54 -13 -12
-13 -19 -1 -48 11 -25 12 -46 5 -88 -13 -75 -25 -129 -37 -167 -6 -18 -7 -33
-2 -33 4 0 10 9 13 20 3 11 11 20 17 20 18 0 4 -91 -26 -175 -14 -38 -28 -80
-31 -92 -7 -31 15 -29 29 2 6 14 17 25 25 25 9 0 11 -8 7 -25 -7 -29 6 -33 28
-7 30 33 55 98 95 242 64 230 76 282 77 330 1 43 0 45 -26 42 -23 -2 -28 1
-28 20 0 13 -5 30 -10 38 -9 13 -12 12 -25 -4 -8 -11 -15 -28 -15 -37 0 -10
-4 -21 -10 -24 -15 -9 -12 27 5 67 10 26 11 38 3 46 -19 19 -27 14 -43 -24z
m25 -168 c0 -8 -4 -18 -10 -21 -5 -3 -10 3 -10 14 0 12 5 21 10 21 6 0 10 -6
10 -14z m-21 -88 c-1 -34 -24 -91 -37 -96 -17 -5 -15 38 3 82 17 40 35 48 34
14z m36 -150 c-20 -101 -55 -185 -55 -134 0 18 30 147 36 158 13 21 25 5 19
-24z"/>
<path d="M12018 6923 c7 -3 16 -2 19 1 4 3 -2 6 -13 5 -11 0 -14 -3 -6 -6z"/>
<path d="M13421 6925 c0 -5 6 -21 14 -35 8 -14 14 -36 15 -50 0 -13 10 -49 21
-80 12 -30 26 -66 31 -79 13 -35 30 -13 19 24 -33 109 -46 143 -72 184 -16 25
-29 42 -28 36z"/>
<path d="M5724 6901 c-60 -33 -152 -150 -213 -271 -63 -124 -77 -160 -64 -160
5 0 16 21 26 47 27 72 121 205 213 302 100 106 107 121 38 82z"/>
<path d="M4151 6856 c2 -25 0 -48 -6 -51 -5 -3 0 -2 12 1 18 4 22 2 17 -10 -4
-10 5 -20 25 -31 34 -17 51 -13 51 12 0 13 3 13 15 3 8 -7 12 -16 9 -21 -3 -5
2 -9 10 -9 22 0 49 59 35 76 -15 18 -29 18 -29 0 0 -21 -20 -30 -33 -17 -6 6
-20 11 -31 11 -15 0 -17 -3 -9 -11 13 -13 6 -42 -8 -33 -5 3 -9 16 -9 30 0 13
-4 24 -10 24 -5 0 -7 7 -4 15 4 8 1 15 -5 15 -6 0 -11 6 -11 14 0 8 -5 18 -11
22 -8 4 -10 -8 -8 -40z"/>
<path d="M4180 6891 c0 -6 6 -11 14 -11 8 0 16 -7 20 -15 3 -8 12 -15 21 -15
8 0 15 -7 15 -17 0 -14 2 -14 20 2 29 26 25 42 -12 48 -18 3 -43 8 -55 12 -15
5 -23 3 -23 -4z"/>
<path d="M4374 6875 c-11 -27 1 -33 19 -9 16 21 16 24 2 24 -9 0 -18 -7 -21
-15z"/>
<path d="M4318 6873 c7 -3 16 -2 19 1 4 3 -2 6 -13 5 -11 0 -14 -3 -6 -6z"/>
<path d="M6540 6873 c-28 -5 -70 -40 -70 -59 0 -6 -16 -26 -36 -43 -19 -17
-32 -36 -29 -42 4 -6 29 10 58 38 29 26 70 63 92 80 39 31 37 35 -15 26z"/>
<path d="M6995 6860 c10 -11 20 -18 23 -15 7 6 -18 35 -31 35 -5 0 -2 -9 8
-20z"/>
<path d="M7146 6834 c-9 -24 -7 -104 3 -104 5 0 11 25 13 56 3 56 -4 78 -16
48z"/>
<path d="M13606 6830 c5 -14 9 -89 10 -168 1 -78 4 -145 6 -148 3 -2 11 38 18
89 9 70 9 100 1 115 -6 11 -11 38 -11 59 0 22 -7 48 -16 59 -15 18 -15 18 -8
-6z"/>
<path d="M4670 6825 c0 -11 7 -15 23 -13 12 2 22 8 22 13 0 6 -10 11 -22 13
-16 2 -23 -2 -23 -13z"/>
<path d="M11140 6803 c0 -28 3 -34 10 -23 13 20 13 60 0 60 -5 0 -10 -17 -10
-37z"/>
<path d="M12125 6830 c3 -5 8 -10 11 -10 2 0 4 5 4 10 0 6 -5 10 -11 10 -5 0
-7 -4 -4 -10z"/>
<path d="M5196 6818 c16 -28 27 -38 36 -32 5 3 2 14 -8 25 -19 21 -39 26 -28
7z"/>
<path d="M4743 6813 c-22 -4 -50 -30 -41 -38 7 -7 88 27 88 37 0 8 -9 8 -47 1z"/>
<path d="M7318 6800 c-12 -30 -19 -90 -10 -90 16 0 42 36 33 46 -5 5 -11 20
-13 34 -3 17 -6 20 -10 10z"/>
<path d="M7656 6783 c-16 -15 -24 -29 -18 -31 12 -4 72 37 72 50 0 16 -26 7
-54 -19z"/>
<path d="M6223 6763 c3 -21 11 -81 18 -133 12 -89 29 -143 29 -91 0 14 7 25
20 28 27 7 25 33 -6 63 -25 23 -26 28 -20 87 6 55 4 63 -13 73 -31 16 -34 13
-28 -27z"/>
<path d="M5194 6767 c10 -15 12 -27 6 -37 -14 -22 -12 -30 5 -24 18 7 20 55 3
72 -20 20 -29 13 -14 -11z"/>
<path d="M4810 6756 c0 -11 -9 -13 -35 -9 -37 6 -42 -1 -21 -29 10 -13 15 -15
24 -6 9 9 12 4 12 -23 0 -22 -6 -38 -18 -45 -13 -9 -17 -23 -15 -70 1 -55 14
-77 21 -37 2 10 14 64 28 120 28 118 27 113 14 113 -5 0 -10 -6 -10 -14z"/>
<path d="M5257 6753 c-10 -10 -8 -53 2 -53 10 0 21 24 21 46 0 15 -12 19 -23
7z"/>
<path d="M11387 6744 c-4 -4 -7 -32 -7 -62 0 -49 -49 -262 -70 -302 -4 -8 -11
-33 -14 -55 -7 -37 -6 -39 9 -24 9 9 22 39 30 67 8 29 21 75 29 103 18 62 34
83 51 69 9 -8 15 -8 20 0 8 13 -3 50 -16 50 -6 0 -8 32 -7 76 3 72 -6 97 -25
78z"/>
<path d="M5340 6705 c0 -20 -21 -58 -61 -114 -33 -46 -58 -86 -55 -89 3 -2 32
19 65 47 52 45 61 58 67 97 4 26 2 55 -4 67 -10 21 -11 20 -12 -8z"/>
<path d="M11570 6719 c0 -5 5 -7 10 -4 6 3 10 8 10 11 0 2 -4 4 -10 4 -5 0
-10 -5 -10 -11z"/>
<path d="M12436 6676 c24 -38 120 -116 141 -115 17 0 17 1 -1 12 -11 7 -45 38
-76 70 -59 59 -94 77 -64 33z"/>
<path d="M12626 6679 c10 -12 42 -33 69 -46 28 -14 61 -34 74 -44 25 -20 41
-24 41 -11 0 4 -36 30 -80 57 -45 26 -83 52 -86 57 -3 4 -12 8 -21 8 -14 0
-13 -3 3 -21z"/>
<path d="M13120 6686 c35 -20 120 -31 120 -17 0 15 -11 18 -85 25 -55 5 -58 4
-35 -8z"/>
<path d="M5507 6683 c-4 -3 -7 -13 -7 -22 1 -13 3 -13 11 2 11 19 8 33 -4 20z"/>
<path d="M5193 6635 c-27 -41 -29 -53 -8 -35 29 24 57 70 43 70 -7 0 -23 -16
-35 -35z"/>
<path d="M5120 6640 c-9 -6 -10 -10 -3 -10 6 0 15 5 18 10 8 12 4 12 -15 0z"/>
<path d="M11615 6620 c-4 -6 5 -10 20 -10 15 0 24 4 20 10 -3 6 -12 10 -20 10
-8 0 -17 -4 -20 -10z"/>
<path d="M5056 6595 c-11 -8 -15 -15 -9 -15 6 0 16 7 23 15 16 19 11 19 -14 0z"/>
<path d="M5447 6593 c-4 -3 -7 -13 -7 -22 1 -13 3 -13 11 2 11 19 8 33 -4 20z"/>
<path d="M5577 6543 l-17 -38 20 24 c11 13 20 29 20 37 0 22 -5 17 -23 -23z"/>
<path d="M12950 6572 c0 -12 19 -26 26 -19 2 2 -2 10 -11 17 -9 8 -15 8 -15 2z"/>
<path d="M13741 6528 c-1 -29 3 -38 15 -38 12 0 14 3 6 13 -5 6 -12 23 -15 37
-3 18 -5 15 -6 -12z"/>
<path d="M4930 6535 c0 -8 7 -15 15 -15 8 0 15 7 15 15 0 8 -7 15 -15 15 -8 0
-15 -7 -15 -15z"/>
<path d="M7471 6534 c0 -11 3 -14 6 -6 3 7 2 16 -1 19 -3 4 -6 -2 -5 -13z"/>
<path d="M10602 6497 c-14 -62 -16 -95 -3 -81 8 8 26 134 19 134 -2 0 -9 -24
-16 -53z"/>
<path d="M12644 6504 c15 -14 31 -23 34 -20 9 9 -30 46 -47 46 -11 -1 -8 -8
13 -26z"/>
<path d="M6081 6454 c-28 -63 -30 -79 -7 -79 21 0 56 77 48 107 -7 29 -20 21
-41 -28z"/>
<path d="M13654 6449 c-11 -18 19 -38 69 -45 38 -6 47 -4 47 9 0 8 -18 22 -40
31 -47 19 -66 20 -76 5z"/>
<path d="M13840 6451 c0 -5 7 -12 16 -15 14 -5 15 -4 4 9 -14 17 -20 19 -20 6z"/>
<path d="M11395 6427 c-4 -14 -5 -36 -3 -48 3 -21 5 -19 17 14 9 27 10 42 3
49 -8 8 -13 3 -17 -15z"/>
<path d="M11472 6430 c0 -14 2 -19 5 -12 2 6 2 18 0 25 -3 6 -5 1 -5 -13z"/>
<path d="M12740 6440 c0 -25 222 -134 306 -149 32 -6 77 -11 100 -11 24 0 55
-5 71 -11 29 -11 148 5 158 21 3 5 -45 8 -107 7 -166 -2 -224 13 -425 109
-100 48 -103 49 -103 34z"/>
<path d="M4730 6423 c0 -13 5 -23 10 -23 13 0 13 11 0 30 -8 12 -10 11 -10 -7z"/>
<path d="M6180 6415 c0 -14 4 -25 9 -25 5 0 11 11 13 25 4 17 1 25 -8 25 -8 0
-14 -11 -14 -25z"/>
<path d="M6259 6400 c-9 -31 -9 -43 1 -55 20 -24 30 -8 30 46 0 59 -15 64 -31
9z"/>
<path d="M7310 6410 c0 -5 5 -10 11 -10 5 0 7 5 4 10 -3 6 -8 10 -11 10 -2 0
-4 -4 -4 -10z"/>
<path d="M7250 6394 c0 -14 3 -14 15 -4 8 7 15 14 15 16 0 2 -7 4 -15 4 -8 0
-15 -7 -15 -16z"/>
<path d="M5375 6387 c-8 -18 -1 -94 9 -104 14 -14 17 9 8 63 -6 42 -11 54 -17
41z"/>
<path d="M6918 6393 c0 -5 -2 -14 -2 -20 -2 -23 -89 -123 -135 -158 -41 -29
-97 -59 -156 -81 -17 -7 -15 -9 12 -12 47 -5 140 48 227 129 84 79 105 111 86
134 -13 16 -29 20 -32 8z"/>
<path d="M5433 6345 c0 -22 2 -30 4 -17 2 12 2 30 0 40 -3 9 -5 -1 -4 -23z"/>
<path d="M11097 6351 c-4 -17 -3 -21 5 -13 5 5 8 16 6 23 -3 8 -7 3 -11 -10z"/>
<path d="M5110 6349 c0 -5 5 -7 10 -4 6 3 10 8 10 11 0 2 -4 4 -10 4 -5 0 -10
-5 -10 -11z"/>
<path d="M11621 6344 c0 -11 3 -14 6 -6 3 7 2 16 -1 19 -3 4 -6 -2 -5 -13z"/>
<path d="M10582 6330 c0 -14 2 -19 5 -12 2 6 2 18 0 25 -3 6 -5 1 -5 -13z"/>
<path d="M6009 6323 c-13 -16 -12 -17 4 -4 16 13 21 21 13 21 -2 0 -10 -8 -17
-17z"/>
<path d="M4890 6319 c0 -5 5 -7 10 -4 6 3 10 8 10 11 0 2 -4 4 -10 4 -5 0 -10
-5 -10 -11z"/>
<path d="M11074 6283 c-4 -21 -10 -42 -14 -48 -4 -5 -10 -19 -14 -30 -7 -20
-7 -20 13 0 21 20 45 115 30 115 -4 0 -11 -17 -15 -37z"/>
<path d="M11353 6285 c-13 -41 2 -49 17 -9 12 31 13 44 2 44 -5 0 -13 -16 -19
-35z"/>
<path d="M5592 6275 c0 -16 2 -22 5 -12 2 9 2 23 0 30 -3 6 -5 -1 -5 -18z"/>
<path d="M10760 6258 c0 -40 15 -67 28 -53 5 6 13 27 16 48 7 35 5 37 -19 37
-22 0 -25 -4 -25 -32z"/>
<path d="M10833 6284 c-10 -5 -5 -30 13 -62 0 -1 9 0 18 4 21 8 21 50 0 58 -9
3 -16 6 -17 5 -1 0 -7 -3 -14 -5z"/>
<path d="M11274 6266 c-37 -40 -70 -133 -44 -124 11 3 64 127 58 134 -2 1 -8
-3 -14 -10z"/>
<path d="M6755 6244 c-18 -16 -22 -22 -9 -15 18 9 53 42 43 41 -2 -1 -17 -12
-34 -26z"/>
<path d="M10912 6248 c2 -13 11 -24 21 -26 15 -3 16 0 6 22 -15 32 -32 34 -27
4z"/>
<path d="M10571 6234 c0 -11 3 -14 6 -6 3 7 2 16 -1 19 -3 4 -6 -2 -5 -13z"/>
<path d="M5420 6204 c0 -5 7 -18 15 -28 8 -11 15 -16 15 -10 0 5 -7 18 -15 28
-8 11 -15 16 -15 10z"/>
<path d="M10977 6185 c10 -13 24 -24 31 -22 23 4 14 22 -18 35 l-31 13 18 -26z"/>
<path d="M6320 6163 c0 -31 15 -61 25 -51 9 9 -5 78 -16 78 -5 0 -9 -12 -9
-27z"/>
<path d="M6502 6163 c2 -10 14 -20 28 -22 25 -3 25 -3 6 18 -23 26 -39 27 -34
4z"/>
<path d="M10394 6121 c8 -66 40 -166 57 -177 18 -11 23 5 9 33 -7 16 -23 66
-35 111 -13 46 -27 87 -31 90 -4 4 -4 -22 0 -57z"/>
<path d="M7014 6157 c-3 -9 -1 -24 5 -36 6 -11 11 -29 11 -40 0 -12 5 -21 10
-21 16 0 12 86 -5 100 -12 10 -16 9 -21 -3z"/>
<path d="M11065 6140 c-16 -16 -26 -32 -23 -36 11 -10 58 28 58 47 0 25 -1 24
-35 -11z"/>
<path d="M5775 6150 c-16 -7 -17 -9 -3 -9 9 -1 20 4 23 9 7 11 7 11 -20 0z"/>
<path d="M10810 6130 c-24 -24 -26 -63 -5 -80 20 -17 32 -4 37 35 3 27 6 30
36 27 36 -2 38 0 16 22 -21 22 -60 20 -84 -4z"/>
<path d="M5710 6130 c0 -13 11 -13 30 0 12 8 11 10 -7 10 -13 0 -23 -4 -23
-10z"/>
<path d="M7502 6078 c12 -27 26 -48 30 -48 16 0 7 26 -23 60 l-30 35 23 -47z"/>
<path d="M10321 6074 c0 -11 3 -14 6 -6 3 7 2 16 -1 19 -3 4 -6 -2 -5 -13z"/>
<path d="M5646 6045 c25 -19 40 -19 24 0 -7 8 -20 15 -28 15 -13 0 -12 -3 4
-15z"/>
<path d="M6430 6040 c27 -52 50 -78 75 -82 33 -7 31 -2 -34 57 -38 36 -50 43
-41 25z"/>
<path d="M10960 6035 c-19 -22 -7 -41 13 -21 18 19 22 36 8 36 -5 0 -14 -7
-21 -15z"/>
<path d="M11247 6043 c-4 -3 -7 -11 -7 -17 0 -6 5 -5 12 2 6 6 9 14 7 17 -3 3
-9 2 -12 -2z"/>
<path d="M5130 6025 c7 -8 17 -15 22 -15 6 0 5 7 -2 15 -7 8 -17 15 -22 15 -6
0 -5 -7 2 -15z"/>
<path d="M4830 6005 c-12 -22 -12 -28 3 -42 16 -16 17 -15 17 25 0 23 -1 42
-3 42 -2 0 -10 -11 -17 -25z"/>
<path d="M5360 5996 c0 -2 8 -10 18 -17 15 -13 16 -12 3 4 -13 16 -21 21 -21
13z"/>
<path d="M6760 5990 c-8 -5 -34 -10 -57 -10 -24 0 -43 -4 -43 -10 0 -5 9 -10
21 -10 30 0 109 21 115 31 7 12 -17 11 -36 -1z"/>
<path d="M4750 5960 c0 -11 6 -20 14 -20 9 0 12 7 9 20 -3 11 -9 20 -14 20 -5
0 -9 -9 -9 -20z"/>
<path d="M10860 5954 c-25 -14 -25 -14 13 -14 26 0 37 4 37 15 0 18 -16 18
-50 -1z"/>
<path d="M5190 5946 c0 -2 7 -9 15 -16 9 -7 15 -8 15 -2 0 5 -7 12 -15 16 -8
3 -15 4 -15 2z"/>
<path d="M7593 5915 c11 -37 27 -47 27 -17 -1 17 -22 52 -33 52 -3 0 0 -16 6
-35z"/>
<path d="M10635 5885 c8 -32 45 -79 45 -57 0 7 10 17 23 21 22 9 21 9 -8 21
-16 6 -38 19 -48 28 -18 16 -18 15 -12 -13z"/>
<path d="M5420 5894 c1 -15 51 -67 58 -60 3 4 2 14 -4 23 -13 20 -54 49 -54
37z"/>
<path d="M10555 5890 c3 -5 10 -10 16 -10 5 0 9 5 9 10 0 6 -7 10 -16 10 -8 0
-12 -4 -9 -10z"/>
<path d="M10875 5820 c3 -5 26 -10 50 -10 24 0 47 5 50 10 4 6 -15 10 -50 10
-35 0 -54 -4 -50 -10z"/>
<path d="M10760 5782 c0 -13 48 -32 80 -32 44 0 36 16 -14 29 -54 13 -66 14
-66 3z"/>
</g>
</svg>
